<?xml version="1.0" encoding="UTF-8"?>
<!DOCTYPE svg PUBLIC "-//W3C//DTD SVG 1.1//EN" "http://www.w3.org/Graphics/SVG/1.1/DTD/svg11.dtd">
<svg xmlns="http://www.w3.org/2000/svg" version="1.1" width="500px" height="500px" style="shape-rendering:geometricPrecision; text-rendering:geometricPrecision; image-rendering:optimizeQuality; fill-rule:evenodd; clip-rule:evenodd" xmlns:xlink="http://www.w3.org/1999/xlink">
<g><path style="opacity:0.275" fill="#d3d3d3" d="M 233.5,106.5 C 231.167,106.5 228.833,106.5 226.5,106.5C 228.556,105.784 230.723,105.117 233,104.5C 233.464,105.094 233.631,105.761 233.5,106.5 Z"/></g>
<g><path style="opacity:0.977" fill="#464646" d="M 226.5,106.5 C 228.833,106.5 231.167,106.5 233.5,106.5C 233.833,106.5 234.167,106.5 234.5,106.5C 234.427,108.027 235.094,109.027 236.5,109.5C 236.5,110.833 236.5,112.167 236.5,113.5C 235.5,113.833 234.833,114.5 234.5,115.5C 234.833,116.5 235.5,117.167 236.5,117.5C 236.833,118.167 237.167,118.833 237.5,119.5C 236.817,121.176 235.483,121.843 233.5,121.5C 232.21,120.942 231.377,119.942 231,118.5C 230.506,120.134 230.34,121.801 230.5,123.5C 229.167,123.5 227.833,123.5 226.5,123.5C 226.089,118.299 225.422,113.133 224.5,108C 224.836,106.97 225.503,106.47 226.5,106.5 Z M 229.5,109.5 C 232.336,109.837 233.002,111.171 231.5,113.5C 229.896,112.713 229.229,111.38 229.5,109.5 Z"/></g>
<g><path style="opacity:0.987" fill="#484848" d="M 258.5,106.5 C 259.5,106.5 260.5,106.5 261.5,106.5C 261.06,110.371 261.06,114.038 261.5,117.5C 261.791,118.649 262.624,119.316 264,119.5C 265.376,119.316 266.209,118.649 266.5,117.5C 266.366,115.708 266.699,114.042 267.5,112.5C 268.451,111.081 268.784,109.415 268.5,107.5C 269.5,107.5 270.5,107.5 271.5,107.5C 272.097,107.735 272.43,108.235 272.5,109C 271.796,112.128 271.296,115.294 271,118.5C 267.549,124.353 263.215,125.019 258,120.5C 257.283,115.78 257.45,111.114 258.5,106.5 Z"/></g>
<g><path style="opacity:0.004" fill="#f5f6f5" d="M 264.5,109.5 C 264.351,108.448 264.517,107.448 265,106.5C 265.74,107.749 265.573,108.749 264.5,109.5 Z"/></g>
<g><path style="opacity:0.451" fill="#888888" d="M 229.5,109.5 C 231.684,108.017 233.017,108.684 233.5,111.5C 233.253,112.713 232.586,113.38 231.5,113.5C 233.002,111.171 232.336,109.837 229.5,109.5 Z"/></g>
<g><path style="opacity:0.424" fill="#a1a1a1" d="M 234.5,106.5 C 235.906,106.973 236.573,107.973 236.5,109.5C 235.094,109.027 234.427,108.027 234.5,106.5 Z"/></g>
<g><path style="opacity:0.667" fill="#9c9c9c" d="M 215.5,109.5 C 212.482,109.704 209.482,110.037 206.5,110.5C 208.828,109.282 211.328,108.282 214,107.5C 214.717,108.044 215.217,108.711 215.5,109.5 Z"/></g>
<g><path style="opacity:0.985" fill="#474747" d="M 215.5,109.5 C 214.7,111.741 213.034,112.741 210.5,112.5C 210.5,113.5 210.5,114.5 210.5,115.5C 212.5,115.5 214.5,115.5 216.5,115.5C 215.952,118.084 214.285,119.084 211.5,118.5C 211.351,119.552 211.517,120.552 212,121.5C 212.69,122.738 213.19,122.738 213.5,121.5C 215.166,120.334 216.833,120.334 218.5,121.5C 219.59,122.609 219.59,123.609 218.5,124.5C 215.533,126.004 212.533,126.338 209.5,125.5C 208.167,120.833 206.833,116.167 205.5,111.5C 205.624,110.893 205.957,110.56 206.5,110.5C 209.482,110.037 212.482,109.704 215.5,109.5 Z"/></g>
<g><path style="opacity:0.325" fill="#9f9f9f" d="M 258.5,106.5 C 259.568,105.566 260.901,105.232 262.5,105.5C 262.5,108.5 262.5,111.5 262.5,114.5C 261.596,115.209 261.263,116.209 261.5,117.5C 261.06,114.038 261.06,110.371 261.5,106.5C 260.5,106.5 259.5,106.5 258.5,106.5 Z"/></g>
<g><path style="opacity:0.007" fill="#f5f6f5" d="M 264.5,109.5 C 265.111,112.236 265.445,114.902 265.5,117.5C 264.5,117.5 263.5,117.5 262.5,117.5C 262.5,116.5 262.5,115.5 262.5,114.5C 263.167,112.833 263.833,111.167 264.5,109.5 Z"/></g>
<g><path style="opacity:0.498" fill="#b3b3b3" d="M 286.5,109.5 C 285.508,109.328 284.842,109.662 284.5,110.5C 283.041,110.433 281.708,110.766 280.5,111.5C 280.47,110.503 280.97,109.836 282,109.5C 283.677,108.392 285.177,108.392 286.5,109.5 Z"/></g>
<g><path style="opacity:0.005" fill="#f1f1f1" d="M 286.5,109.5 C 287.873,109.343 289.207,109.51 290.5,110C 289.584,110.278 288.918,110.778 288.5,111.5C 287.508,111.672 286.842,111.338 286.5,110.5C 286.5,110.167 286.5,109.833 286.5,109.5 Z"/></g>
<g><path style="opacity:0.979" fill="#4b4b4b" d="M 284.5,110.5 C 285.167,110.5 285.833,110.5 286.5,110.5C 286.842,111.338 287.508,111.672 288.5,111.5C 290.346,111.222 291.68,111.889 292.5,113.5C 290.812,115.854 288.812,117.854 286.5,119.5C 285.094,119.973 284.427,120.973 284.5,122.5C 284.5,123.167 284.833,123.5 285.5,123.5C 285.842,124.338 286.508,124.672 287.5,124.5C 289.838,125.648 289.671,126.982 287,128.5C 283.204,127.847 279.704,126.514 276.5,124.5C 277.193,123.482 277.859,122.482 278.5,121.5C 279.833,120.5 281.167,119.5 282.5,118.5C 287.361,115.962 287.361,114.296 282.5,113.5C 280.007,113.869 279.34,113.203 280.5,111.5C 281.708,110.766 283.041,110.433 284.5,110.5 Z"/></g>
<g><path style="opacity:0.733" fill="#939393" d="M 271.5,107.5 C 270.5,107.5 269.5,107.5 268.5,107.5C 268.784,109.415 268.451,111.081 267.5,112.5C 267.5,110.5 267.5,108.5 267.5,106.5C 269.099,106.232 270.432,106.566 271.5,107.5 Z"/></g>
<g><path style="opacity:0.078" fill="#cbcbcb" d="M 215.5,109.5 C 216.776,110.386 216.776,111.386 215.5,112.5C 214.205,113.098 212.872,113.598 211.5,114C 213.382,114.198 215.048,114.698 216.5,115.5C 214.5,115.5 212.5,115.5 210.5,115.5C 210.5,114.5 210.5,113.5 210.5,112.5C 213.034,112.741 214.7,111.741 215.5,109.5 Z"/></g>
<g><path style="opacity:0.008" fill="#c9c9c9" d="M 236.5,113.5 C 236.5,114.833 235.833,115.5 234.5,115.5C 234.833,114.5 235.5,113.833 236.5,113.5 Z"/></g>
<g><path style="opacity:0.984" fill="#525252" d="M 188.5,115.5 C 199.039,114.915 202.539,119.581 199,129.5C 196.866,131.484 194.366,132.818 191.5,133.5C 188.61,128.863 186.276,123.863 184.5,118.5C 185.624,117.141 186.958,116.141 188.5,115.5 Z"/></g>
<g><path style="opacity:0.004" fill="#f5f6f5" d="M 236.5,116.5 C 237.833,117.167 237.833,117.167 236.5,116.5 Z"/></g>
<g><path style="opacity:0.004" fill="#f5f6f5" d="M 205.5,117.5 C 206.525,117.897 206.692,118.563 206,119.5C 205.536,118.906 205.369,118.239 205.5,117.5 Z"/></g>
<g><path style="opacity:0.962" fill="#757575" d="M 245.5,116.5 C 247.948,116.085 249.281,117.085 249.5,119.5C 247.833,123.5 246.167,123.5 244.5,119.5C 244.685,118.416 245.018,117.416 245.5,116.5 Z"/></g>
<g><path style="opacity:0.506" fill="#929292" d="M 282.5,113.5 C 287.361,114.296 287.361,115.962 282.5,118.5C 282.511,116.983 283.177,115.816 284.5,115C 283.584,114.722 282.918,114.222 282.5,113.5 Z"/></g>
<g><path style="opacity:0.011" fill="#c8c8c8" d="M 216.5,115.5 C 217.249,116.531 217.915,117.698 218.5,119C 216.5,119.333 214.5,119.667 212.5,120C 213.056,120.383 213.389,120.883 213.5,121.5C 213.19,122.738 212.69,122.738 212,121.5C 211.517,120.552 211.351,119.552 211.5,118.5C 214.285,119.084 215.952,118.084 216.5,115.5 Z"/></g>
<g><path style="opacity:0.286" fill="#9e9e9e" d="M 261.5,117.5 C 261.833,117.5 262.167,117.5 262.5,117.5C 263.5,118.833 264.5,118.833 265.5,117.5C 265.833,117.5 266.167,117.5 266.5,117.5C 266.209,118.649 265.376,119.316 264,119.5C 262.624,119.316 261.791,118.649 261.5,117.5 Z"/></g>
<g><path style="opacity:0.009" fill="#eaeaea" d="M 194.5,120.5 C 193.167,120.833 193.167,121.167 194.5,121.5C 194.328,122.492 194.662,123.158 195.5,123.5C 195.5,123.833 195.5,124.167 195.5,124.5C 194.662,124.842 194.328,125.508 194.5,126.5C 192.821,126.715 191.821,126.048 191.5,124.5C 190.596,123.791 190.263,122.791 190.5,121.5C 189.957,121.44 189.624,121.107 189.5,120.5C 191.299,119.212 192.965,119.212 194.5,120.5 Z"/></g>
<g><path style="opacity:0.004" fill="#f5f6f5" d="M 278.5,121.5 C 277.833,120.167 277.833,120.167 278.5,121.5 Z"/></g>
<g><path style="opacity:0.01" fill="#e2e2e2" d="M 286.5,119.5 C 286.721,120.735 287.388,121.735 288.5,122.5C 288.137,123.183 287.804,123.85 287.5,124.5C 286.508,124.672 285.842,124.338 285.5,123.5C 284.833,123.5 284.5,123.167 284.5,122.5C 284.427,120.973 285.094,119.973 286.5,119.5 Z"/></g>
<g><path style="opacity:0.004" fill="#d3d3d3" d="M 237.5,119.5 C 238.404,120.209 238.737,121.209 238.5,122.5C 236.585,122.784 234.919,122.451 233.5,121.5C 235.483,121.843 236.817,121.176 237.5,119.5 Z"/></g>
<g><path style="opacity:0.016" fill="#f5f5f5" d="M 175.5,125.5 C 174.167,125.5 172.833,125.5 171.5,125.5C 171.167,125.5 170.833,125.5 170.5,125.5C 170.369,124.761 170.536,124.094 171,123.5C 172.622,124.099 174.122,124.766 175.5,125.5 Z"/></g>
<g><path style="opacity:0.988" fill="#4c4c4c" d="M 171.5,125.5 C 172.833,125.5 174.167,125.5 175.5,125.5C 181.285,127.808 182.951,131.808 180.5,137.5C 179.167,138.167 178.167,139.167 177.5,140.5C 170.474,143.69 166.141,141.356 164.5,133.5C 164.436,131.443 165.102,129.777 166.5,128.5C 168.434,127.89 170.101,126.89 171.5,125.5 Z M 176.5,132.5 C 176.167,132.5 175.833,132.5 175.5,132.5C 175.631,133.239 175.464,133.906 175,134.5C 173.698,135.085 172.531,135.751 171.5,136.5C 168.866,134.46 168.866,132.293 171.5,130C 174.019,129.259 175.685,130.092 176.5,132.5 Z"/></g>
<g><path style="opacity:0.004" fill="#f5f6f5" d="M 185.5,125.5 C 186.833,126.167 186.833,126.167 185.5,125.5 Z"/></g>
<g><path style="opacity:0.82" fill="#858585" d="M 170.5,125.5 C 170.833,125.5 171.167,125.5 171.5,125.5C 170.101,126.89 168.434,127.89 166.5,128.5C 167.504,127.317 168.338,125.984 169,124.5C 169.383,125.056 169.883,125.389 170.5,125.5 Z"/></g>
<g><path style="opacity:0.006" fill="#dddddd" d="M 175.5,132.5 C 175.833,132.5 176.167,132.5 176.5,132.5C 176.328,133.492 176.662,134.158 177.5,134.5C 177.672,135.492 177.338,136.158 176.5,136.5C 175.005,138.345 173.338,138.678 171.5,137.5C 172.833,137.167 172.833,136.833 171.5,136.5C 172.531,135.751 173.698,135.085 175,134.5C 175.464,133.906 175.631,133.239 175.5,132.5 Z"/></g>
<g><path style="opacity:0.031" fill="#d8d8d8" d="M 329.5,134.5 C 328.508,134.672 327.842,134.338 327.5,133.5C 328.925,131.969 329.591,132.302 329.5,134.5 Z"/></g>
<g><path style="opacity:0.8" fill="#a5a5a5" d="M 259.5,137.5 C 250.482,137.448 241.482,137.782 232.5,138.5C 237.757,137.025 243.257,136.358 249,136.5C 252.683,136.501 256.183,136.835 259.5,137.5 Z"/></g>
<g><path style="opacity:0.999" fill="#2a2a2a" d="M 259.5,137.5 C 276.05,138.351 291.384,143.018 305.5,151.5C 305.821,153.048 306.821,153.715 308.5,153.5C 310.795,154.475 312.795,155.808 314.5,157.5C 315.035,159.446 316.368,160.446 318.5,160.5C 319.5,160.833 320.167,161.5 320.5,162.5C 320.973,163.906 321.973,164.573 323.5,164.5C 327.167,167.5 330.5,170.833 333.5,174.5C 334.3,176.573 335.633,178.24 337.5,179.5C 337.738,181.404 338.738,182.738 340.5,183.5C 341.71,183.932 342.71,184.599 343.5,185.5C 342.833,185.5 342.5,185.833 342.5,186.5C 342.427,188.027 343.094,189.027 344.5,189.5C 344.427,191.027 345.094,192.027 346.5,192.5C 347.5,193.833 348.5,195.167 349.5,196.5C 351.882,201.307 353.882,206.307 355.5,211.5C 355.41,214.152 356.076,216.485 357.5,218.5C 357.41,221.152 358.076,223.485 359.5,225.5C 365.286,252.106 361.953,277.44 349.5,301.5C 348.599,302.29 347.932,303.29 347.5,304.5C 340.438,318.238 330.771,329.904 318.5,339.5C 318.167,339.5 317.833,339.5 317.5,339.5C 316.508,339.328 315.842,339.662 315.5,340.5C 315.5,340.833 315.5,341.167 315.5,341.5C 314.29,341.932 313.29,342.599 312.5,343.5C 309.9,344.599 307.734,346.266 306,348.5C 305.667,348.167 305.333,347.833 305,347.5C 303.22,348.639 301.386,349.639 299.5,350.5C 298.508,350.328 297.842,350.662 297.5,351.5C 296.29,351.932 295.29,352.599 294.5,353.5C 292.883,354.038 291.216,354.371 289.5,354.5C 288.508,354.328 287.842,354.662 287.5,355.5C 286.791,356.404 285.791,356.737 284.5,356.5C 283.209,356.263 282.209,356.596 281.5,357.5C 279.694,358.024 278.028,358.691 276.5,359.5C 273.273,359.676 270.273,360.343 267.5,361.5C 258.513,362.107 249.513,362.44 240.5,362.5C 235.556,361.72 230.556,360.72 225.5,359.5C 223.485,358.076 221.152,357.41 218.5,357.5C 216.485,356.076 214.152,355.41 211.5,355.5C 204.703,353.266 198.37,350.266 192.5,346.5C 192.027,345.094 191.027,344.427 189.5,344.5C 189.027,343.094 188.027,342.427 186.5,342.5C 186.027,341.094 185.027,340.427 183.5,340.5C 182.738,338.738 181.404,337.738 179.5,337.5C 179.027,336.094 178.027,335.427 176.5,335.5C 142.42,304.843 130.42,267.176 140.5,222.5C 141.924,220.485 142.59,218.152 142.5,215.5C 144.491,207.192 147.824,199.525 152.5,192.5C 153.906,192.027 154.573,191.027 154.5,189.5C 155.906,189.027 156.573,188.027 156.5,186.5C 157.906,186.027 158.573,185.027 158.5,183.5C 160.262,182.738 161.262,181.404 161.5,179.5C 161.5,178.833 161.833,178.5 162.5,178.5C 163.906,178.027 164.573,177.027 164.5,175.5C 166.167,173.167 168.167,171.167 170.5,169.5C 173.427,168.243 175.761,166.243 177.5,163.5C 177.5,162.833 177.833,162.5 178.5,162.5C 180.749,161.92 182.415,160.587 183.5,158.5C 185.027,158.573 186.027,157.906 186.5,156.5C 188.027,156.573 189.027,155.906 189.5,154.5C 191.027,154.573 192.027,153.906 192.5,152.5C 192.842,151.662 193.508,151.328 194.5,151.5C 196.027,151.573 197.027,150.906 197.5,149.5C 201.844,146.935 206.51,144.935 211.5,143.5C 215.162,143.277 218.495,142.277 221.5,140.5C 221.833,140.5 222.167,140.5 222.5,140.5C 225.152,140.59 227.485,139.924 229.5,138.5C 230.5,138.5 231.5,138.5 232.5,138.5C 241.482,137.782 250.482,137.448 259.5,137.5 Z M 222.5,200.5 C 222.5,201.167 222.5,201.833 222.5,202.5C 221.833,202.833 221.167,203.167 220.5,203.5C 220.427,201.973 221.094,200.973 222.5,200.5 Z M 302.5,200.5 C 301.167,201.5 299.833,202.5 298.5,203.5C 297.833,203.5 297.167,203.5 296.5,203.5C 297.911,201.461 299.911,200.461 302.5,200.5 Z M 262.5,202.5 C 263.239,202.369 263.906,202.536 264.5,203C 266.85,204.731 268.184,206.564 268.5,208.5C 267.562,210.91 267.562,213.244 268.5,215.5C 268.5,216.167 268.5,216.833 268.5,217.5C 268.167,217.5 267.833,217.5 267.5,217.5C 267.158,218.338 266.492,218.672 265.5,218.5C 267.358,212.603 266.358,207.269 262.5,202.5 Z M 220.5,203.5 C 220.5,204.167 220.5,204.833 220.5,205.5C 219.833,205.833 219.167,206.167 218.5,206.5C 218.427,204.973 219.094,203.973 220.5,203.5 Z M 296.5,203.5 C 295.833,204.5 295.167,205.5 294.5,206.5C 291.236,208.094 288.569,210.427 286.5,213.5C 285.5,214.167 284.5,214.833 283.5,215.5C 283.5,214.833 283.5,214.167 283.5,213.5C 287.282,209.377 291.615,206.043 296.5,203.5 Z M 314.5,203.5 C 315.5,203.833 316.167,204.5 316.5,205.5C 316.5,206.5 316.5,207.5 316.5,208.5C 315.833,207.5 315.167,206.5 314.5,205.5C 314.5,204.833 314.5,204.167 314.5,203.5 Z M 316.5,208.5 C 317.477,211.287 317.81,214.287 317.5,217.5C 316.833,218.5 316.167,219.5 315.5,220.5C 315.5,219.167 315.5,217.833 315.5,216.5C 316.473,214.052 316.806,211.385 316.5,208.5 Z M 215.5,211.5 C 215.5,212.167 215.833,212.5 216.5,212.5C 216.158,213.338 215.492,213.672 214.5,213.5C 214.328,212.508 214.662,211.842 215.5,211.5 Z M 214.5,213.5 C 214.833,214.167 215.167,214.833 215.5,215.5C 214.833,215.5 214.167,215.5 213.5,215.5C 213.328,214.508 213.662,213.842 214.5,213.5 Z M 281.5,216.5 C 281.833,216.5 282.167,216.5 282.5,216.5C 282.5,217.167 282.5,217.833 282.5,218.5C 281.5,219.167 280.5,219.833 279.5,220.5C 279.733,218.938 280.4,217.605 281.5,216.5 Z M 222.5,218.5 C 222.5,219.167 222.5,219.833 222.5,220.5C 221.833,220.833 221.167,221.167 220.5,221.5C 220.5,220.833 220.5,220.167 220.5,219.5C 221.167,219.167 221.833,218.833 222.5,218.5 Z M 279.5,220.5 C 279.5,221.167 279.5,221.833 279.5,222.5C 278.5,223.167 277.5,223.833 276.5,224.5C 276.738,222.596 277.738,221.262 279.5,220.5 Z M 315.5,220.5 C 315.122,222.921 314.455,225.254 313.5,227.5C 313.5,227.833 313.5,228.167 313.5,228.5C 312.833,228.5 312.167,228.5 311.5,228.5C 312.326,225.515 313.659,222.849 315.5,220.5 Z M 218.5,222.5 C 218.833,222.5 219.167,222.5 219.5,222.5C 219.5,223.167 219.5,223.833 219.5,224.5C 218.833,224.833 218.167,225.167 217.5,225.5C 217.557,224.391 217.89,223.391 218.5,222.5 Z M 262.5,224.5 C 263.404,225.209 263.737,226.209 263.5,227.5C 263.5,227.833 263.5,228.167 263.5,228.5C 262.833,228.5 262.167,228.5 261.5,228.5C 261.833,227.167 262.167,225.833 262.5,224.5 Z M 276.5,224.5 C 276.5,225.167 276.5,225.833 276.5,226.5C 275.662,226.842 275.328,227.508 275.5,228.5C 274.5,229.167 273.5,229.833 272.5,230.5C 273.34,228.147 274.674,226.147 276.5,224.5 Z M 217.5,225.5 C 217.5,226.167 217.5,226.833 217.5,227.5C 216.833,227.833 216.167,228.167 215.5,228.5C 215.427,226.973 216.094,225.973 217.5,225.5 Z M 208.5,226.5 C 208.328,227.492 208.662,228.158 209.5,228.5C 209.5,229.833 209.5,231.167 209.5,232.5C 208.833,233.167 208.167,233.833 207.5,234.5C 207.672,233.508 207.338,232.842 206.5,232.5C 206.263,231.209 206.596,230.209 207.5,229.5C 207.263,228.209 207.596,227.209 208.5,226.5 Z M 261.5,228.5 C 261.573,230.027 260.906,231.027 259.5,231.5C 259.427,229.973 260.094,228.973 261.5,228.5 Z M 311.5,228.5 C 311.5,229.5 311.5,230.5 311.5,231.5C 310.5,232.167 309.5,232.833 308.5,233.5C 309.11,231.566 310.11,229.899 311.5,228.5 Z M 214.5,230.5 C 214.5,231.167 214.5,231.833 214.5,232.5C 213.833,232.833 213.167,233.167 212.5,233.5C 212.5,232.833 212.5,232.167 212.5,231.5C 213.167,231.167 213.833,230.833 214.5,230.5 Z M 272.5,230.5 C 272.5,231.167 272.5,231.833 272.5,232.5C 272.5,232.833 272.5,233.167 272.5,233.5C 271.833,233.5 271.167,233.5 270.5,233.5C 270.427,231.973 271.094,230.973 272.5,230.5 Z M 259.5,231.5 C 259.5,232.167 259.5,232.833 259.5,233.5C 258.833,233.833 258.167,234.167 257.5,234.5C 257.5,233.833 257.5,233.167 257.5,232.5C 258.167,232.167 258.833,231.833 259.5,231.5 Z M 206.5,232.5 C 206.328,233.492 206.662,234.158 207.5,234.5C 207.657,235.873 207.49,237.207 207,238.5C 206.768,237.263 206.268,236.263 205.5,235.5C 205.263,234.209 205.596,233.209 206.5,232.5 Z M 308.5,233.5 C 308.5,234.167 308.5,234.833 308.5,235.5C 306.167,237.167 304.167,239.167 302.5,241.5C 301.833,241.5 301.167,241.5 300.5,241.5C 302.833,238.5 305.5,235.833 308.5,233.5 Z M 257.5,234.5 C 257.5,235.167 257.5,235.833 257.5,236.5C 255.5,238.167 253.5,239.833 251.5,241.5C 251.5,240.833 251.5,240.167 251.5,239.5C 253.167,238.5 254.5,237.167 255.5,235.5C 256.167,235.167 256.833,234.833 257.5,234.5 Z M 269.5,235.5 C 269.5,236.167 269.5,236.833 269.5,237.5C 267.895,240.378 266.561,243.378 265.5,246.5C 264.833,246.833 264.167,247.167 263.5,247.5C 263.5,246.5 263.5,245.5 263.5,244.5C 265.25,243.341 266.25,241.674 266.5,239.5C 267.5,238.167 268.5,236.833 269.5,235.5 Z M 210.5,237.5 C 207.774,243.343 205.441,249.343 203.5,255.5C 202.596,256.209 202.263,257.209 202.5,258.5C 202.5,258.833 202.5,259.167 202.5,259.5C 201.778,259.918 201.278,260.584 201,261.5C 199.957,257.774 199.457,258.107 199.5,262.5C 200.434,263.568 200.768,264.901 200.5,266.5C 199.659,268.379 199.325,270.379 199.5,272.5C 198.761,272.369 198.094,272.536 197.5,273C 198.252,273.671 198.586,274.504 198.5,275.5C 197.446,279.164 196.279,282.831 195,286.5C 195.111,274.794 196.945,263.461 200.5,252.5C 201.231,247.562 202.565,242.895 204.5,238.5C 204.369,239.239 204.536,239.906 205,240.5C 205.977,239.226 206.811,239.226 207.5,240.5C 208.272,239.306 209.272,238.306 210.5,237.5 Z M 300.5,241.5 C 300.167,242.167 299.833,242.833 299.5,243.5C 298.833,243.5 298.167,243.5 297.5,243.5C 297.973,242.094 298.973,241.427 300.5,241.5 Z M 248.5,242.5 C 249.167,242.5 249.833,242.5 250.5,242.5C 250.167,243.167 249.833,243.833 249.5,244.5C 248.833,244.5 248.167,244.5 247.5,244.5C 247.833,243.833 248.167,243.167 248.5,242.5 Z M 297.5,243.5 C 297.167,244.167 296.833,244.833 296.5,245.5C 295.833,245.5 295.167,245.5 294.5,245.5C 294.973,244.094 295.973,243.427 297.5,243.5 Z M 292.5,246.5 C 290.22,248.223 287.553,248.889 284.5,248.5C 284.5,248.167 284.5,247.833 284.5,247.5C 287.206,247.425 289.873,247.092 292.5,246.5 Z M 244.5,247.5 C 244.167,248.167 243.833,248.833 243.5,249.5C 242.833,249.5 242.167,249.5 241.5,249.5C 241.973,248.094 242.973,247.427 244.5,247.5 Z M 257.5,262.5 C 257.5,264.5 257.5,266.5 257.5,268.5C 256.247,275.813 256.247,283.146 257.5,290.5C 256.073,288.852 255.24,286.852 255,284.5C 254.425,278.478 254.591,272.478 255.5,266.5C 256.167,265.167 256.833,263.833 257.5,262.5 Z M 217.5,264.5 C 217.932,265.71 218.599,266.71 219.5,267.5C 220.5,270.167 221.5,272.833 222.5,275.5C 221.833,275.167 221.167,274.833 220.5,274.5C 219.674,271.515 218.341,268.849 216.5,266.5C 216.328,265.508 216.662,264.842 217.5,264.5 Z M 281.5,287.5 C 281.167,288.167 280.833,288.833 280.5,289.5C 279.833,289.5 279.167,289.5 278.5,289.5C 278.973,288.094 279.973,287.427 281.5,287.5 Z M 276.5,291.5 C 276.167,292.167 275.833,292.833 275.5,293.5C 274.833,293.5 274.167,293.5 273.5,293.5C 273.973,292.094 274.973,291.427 276.5,291.5 Z M 273.5,293.5 C 273.167,294.167 272.833,294.833 272.5,295.5C 271.391,295.557 270.391,295.89 269.5,296.5C 268.508,296.672 267.842,296.338 267.5,295.5C 269.5,294.833 271.5,294.167 273.5,293.5 Z"/></g>
<g><path style="opacity:0.502" fill="#999999" d="M 328.5,137.5 C 330.027,137.427 331.027,138.094 331.5,139.5C 329.973,139.573 328.973,138.906 328.5,137.5 Z"/></g>
<g><path style="opacity:0.982" fill="#585858" d="M 151.5,149.5 C 151.5,150.167 151.833,150.5 152.5,150.5C 153.5,151.833 154.5,151.833 155.5,150.5C 157.87,149.19 159.203,147.524 159.5,145.5C 161.308,146.918 161.975,148.918 161.5,151.5C 156.464,158.123 151.297,158.123 146,151.5C 145.199,148.633 145.366,145.966 146.5,143.5C 148.167,142.5 149.5,141.167 150.5,139.5C 153.267,138.068 155.934,138.401 158.5,140.5C 158.023,141.478 157.357,142.311 156.5,143C 153.175,142.775 150.842,144.108 149.5,147C 150.066,147.995 150.733,148.828 151.5,149.5 Z"/></g>
<g><path style="opacity:0.004" fill="#cacaca" d="M 180.5,137.5 C 180.5,139.5 179.5,140.5 177.5,140.5C 178.167,139.167 179.167,138.167 180.5,137.5 Z"/></g>
<g><path style="opacity:0.765" fill="#959595" d="M 229.5,138.5 C 227.485,139.924 225.152,140.59 222.5,140.5C 224.515,139.076 226.848,138.41 229.5,138.5 Z"/></g>
<g><path style="opacity:0.533" fill="#a8a8a8" d="M 150.5,139.5 C 149.5,141.167 148.167,142.5 146.5,143.5C 146.833,141.167 148.167,139.833 150.5,139.5 Z"/></g>
<g><path style="opacity:0.765" fill="#8a8a8a" d="M 221.5,140.5 C 218.495,142.277 215.162,143.277 211.5,143.5C 214.505,141.723 217.838,140.723 221.5,140.5 Z"/></g>
<g><path style="opacity:0.345" fill="#afafaf" d="M 161.5,151.5 C 161.975,148.918 161.308,146.918 159.5,145.5C 160.008,143.767 160.841,143.434 162,144.5C 162.796,147.039 162.629,149.372 161.5,151.5 Z"/></g>
<g><path style="opacity:0.006" fill="#f5f6f5" d="M 155.5,150.5 C 154.5,150.5 153.5,150.5 152.5,150.5C 151.833,150.5 151.5,150.167 151.5,149.5C 152.189,148.226 153.023,148.226 154,149.5C 156.355,146.87 156.855,147.203 155.5,150.5 Z"/></g>
<g><path style="opacity:0.745" fill="#929292" d="M 197.5,149.5 C 197.027,150.906 196.027,151.573 194.5,151.5C 194.973,150.094 195.973,149.427 197.5,149.5 Z"/></g>
<g><path style="opacity:0.871" fill="#8f8f8f" d="M 305.5,151.5 C 306.71,151.932 307.71,152.599 308.5,153.5C 306.821,153.715 305.821,153.048 305.5,151.5 Z"/></g>
<g><path style="opacity:0.686" fill="#a2a2a2" d="M 349.5,151.5 C 351.587,152.585 352.92,154.251 353.5,156.5C 351.413,155.415 350.08,153.749 349.5,151.5 Z"/></g>
<g><path style="opacity:0.753" fill="#8e8e8e" d="M 192.5,152.5 C 192.027,153.906 191.027,154.573 189.5,154.5C 189.973,153.094 190.973,152.427 192.5,152.5 Z"/></g>
<g><path style="opacity:0.776" fill="#868686" d="M 189.5,154.5 C 189.027,155.906 188.027,156.573 186.5,156.5C 186.973,155.094 187.973,154.427 189.5,154.5 Z"/></g>
<g><path style="opacity:0.773" fill="#898989" d="M 186.5,156.5 C 186.027,157.906 185.027,158.573 183.5,158.5C 183.973,157.094 184.973,156.427 186.5,156.5 Z"/></g>
<g><path style="opacity:0.972" fill="#5d5d5d" d="M 134.5,159.5 C 134.973,160.906 135.973,161.573 137.5,161.5C 138.815,162.476 140.148,163.476 141.5,164.5C 142.833,163.5 144.167,162.5 145.5,161.5C 146.672,161.919 147.672,162.585 148.5,163.5C 146.902,166.601 144.735,169.268 142,171.5C 138,168.167 134,164.833 130,161.5C 130.044,159.721 130.711,158.055 132,156.5C 133.045,157.373 133.878,158.373 134.5,159.5 Z"/></g>
<g><path style="opacity:0.914" fill="#8e8e8e" d="M 314.5,157.5 C 316.23,158.026 317.564,159.026 318.5,160.5C 316.368,160.446 315.035,159.446 314.5,157.5 Z"/></g>
<g><path style="opacity:0.008" fill="#c8c8c8" d="M 134.5,159.5 C 136.027,159.427 137.027,160.094 137.5,161.5C 135.973,161.573 134.973,160.906 134.5,159.5 Z"/></g>
<g><path style="opacity:0.902" fill="#747474" d="M 183.5,158.5 C 182.415,160.587 180.749,161.92 178.5,162.5C 179.585,160.413 181.251,159.08 183.5,158.5 Z"/></g>
<g><path style="opacity:0.004" fill="#cbcbcb" d="M 320.5,162.5 C 322.027,162.427 323.027,163.094 323.5,164.5C 321.973,164.573 320.973,163.906 320.5,162.5 Z"/></g>
<g><path style="opacity:0.923" fill="#5f5f5f" d="M 327.5,133.5 C 327.842,134.338 328.508,134.672 329.5,134.5C 336.779,139.446 343.446,145.113 349.5,151.5C 350.08,153.749 351.413,155.415 353.5,156.5C 357.742,160.685 361.742,165.018 365.5,169.5C 364.167,169.833 364.167,170.167 365.5,170.5C 366.441,172.05 367.107,173.716 367.5,175.5C 366.833,175.5 366.5,175.833 366.5,176.5C 356.578,162.577 344.912,150.243 331.5,139.5C 331.027,138.094 330.027,137.427 328.5,137.5C 324.692,135.427 321.026,133.094 317.5,130.5C 317.887,129.28 318.72,128.613 320,128.5C 322.807,129.812 325.307,131.479 327.5,133.5 Z"/></g>
<g><path style="opacity:0.835" fill="#787878" d="M 177.5,163.5 C 175.761,166.243 173.427,168.243 170.5,169.5C 172.239,166.757 174.573,164.757 177.5,163.5 Z"/></g>
<g><path style="opacity:0.004" fill="#f5f6f5" d="M 365.5,169.5 C 366.833,170.167 366.833,170.167 365.5,169.5 Z"/></g>
<g><path style="opacity:0.004" fill="#f3f3f3" d="M 119.5,174.5 C 119.5,175.167 119.5,175.833 119.5,176.5C 118.833,176.5 118.5,176.833 118.5,177.5C 117.402,176.399 117.235,175.066 118,173.5C 118.383,174.056 118.883,174.389 119.5,174.5 Z"/></g>
<g><path style="opacity:0.357" fill="#c1c1c1" d="M 125.5,173.5 C 123.379,173.325 121.379,173.659 119.5,174.5C 119.97,173.307 120.97,172.64 122.5,172.5C 123.726,172.52 124.726,172.853 125.5,173.5 Z"/></g>
<g><path style="opacity:0.975" fill="#4a4a4a" d="M 125.5,173.5 C 128.988,173.54 132.321,174.207 135.5,175.5C 136.11,176.391 136.443,177.391 136.5,178.5C 134.219,178.077 132.552,178.744 131.5,180.5C 131.145,183.137 130.811,185.804 130.5,188.5C 130.167,188.833 129.833,189.167 129.5,189.5C 128.482,188.807 127.482,188.141 126.5,187.5C 124.646,183.779 122.313,180.446 119.5,177.5C 119.5,177.167 119.5,176.833 119.5,176.5C 119.5,175.833 119.5,175.167 119.5,174.5C 121.379,173.659 123.379,173.325 125.5,173.5 Z M 125.5,178.5 C 125.5,177.833 125.833,177.5 126.5,177.5C 126.833,177.5 127.167,177.5 127.5,177.5C 127.591,179.698 126.925,180.031 125.5,178.5 Z"/></g>
<g><path style="opacity:0.952" fill="#474747" d="M 381.5,176.5 C 381.443,177.609 381.11,178.609 380.5,179.5C 379.733,180.172 379.066,181.005 378.5,182C 379.437,182.692 380.103,182.525 380.5,181.5C 380.833,181.5 381.167,181.5 381.5,181.5C 382.167,181.167 382.833,180.833 383.5,180.5C 384.848,181.527 385.348,182.86 385,184.5C 382.942,185.229 381.109,186.229 379.5,187.5C 377.847,187.66 376.514,188.326 375.5,189.5C 374.833,189.5 374.167,189.5 373.5,189.5C 372.167,189.5 370.833,189.5 369.5,189.5C 368.559,187.95 367.893,186.284 367.5,184.5C 367.461,181.911 368.461,179.911 370.5,178.5C 372.167,178.5 373.833,178.5 375.5,178.5C 376.167,178.5 376.5,178.167 376.5,177.5C 377.644,175.9 378.811,174.233 380,172.5C 380.791,173.745 381.291,175.078 381.5,176.5 Z"/></g>
<g><path style="opacity:0.467" fill="#9e9e9e" d="M 135.5,175.5 C 139.001,175.351 139.334,176.351 136.5,178.5C 136.443,177.391 136.11,176.391 135.5,175.5 Z"/></g>
<g><path style="opacity:0.006" fill="#ebebeb" d="M 367.5,175.5 C 369.027,175.427 370.027,176.094 370.5,177.5C 369.167,177.833 369.167,178.167 370.5,178.5C 368.461,179.911 367.461,181.911 367.5,184.5C 367.141,181.877 366.808,179.21 366.5,176.5C 367.167,176.5 367.5,176.167 367.5,175.5 Z"/></g>
<g><path style="opacity:0.007" fill="#ececec" d="M 383.5,180.5 C 382.833,180.833 382.167,181.167 381.5,181.5C 381.672,180.508 381.338,179.842 380.5,179.5C 381.11,178.609 381.443,177.609 381.5,176.5C 382.117,176.389 382.617,176.056 383,175.5C 384.036,177.299 384.203,178.966 383.5,180.5 Z"/></g>
<g><path style="opacity:0.22" fill="#adadad" d="M 126.5,177.5 C 125.833,177.5 125.5,177.833 125.5,178.5C 124.711,178.217 124.044,177.717 123.5,177C 124.749,176.26 125.749,176.427 126.5,177.5 Z"/></g>
<g><path style="opacity:0.706" fill="#979797" d="M 164.5,175.5 C 164.573,177.027 163.906,178.027 162.5,178.5C 162.427,176.973 163.094,175.973 164.5,175.5 Z"/></g>
<g><path style="opacity:0.004" fill="#c8c8c8" d="M 333.5,174.5 C 335.389,175.604 337.055,176.937 338.5,178.5C 337.833,178.5 337.5,178.833 337.5,179.5C 335.633,178.24 334.3,176.573 333.5,174.5 Z"/></g>
<g><path style="opacity:0.004" fill="#f5f6f5" d="M 118.5,177.5 C 118.833,177.5 119.167,177.5 119.5,177.5C 119.315,178.17 118.981,178.17 118.5,177.5 Z"/></g>
<g><path style="opacity:0.275" fill="#cdcdcd" d="M 376.5,177.5 C 375.833,177.5 375.5,177.833 375.5,178.5C 373.833,178.5 372.167,178.5 370.5,178.5C 370.5,178.167 370.5,177.833 370.5,177.5C 371.873,177.657 373.207,177.49 374.5,177C 373.112,176.111 373.278,175.611 375,175.5C 376.03,175.836 376.53,176.503 376.5,177.5 Z"/></g>
<g><path style="opacity:0.102" fill="#bababa" d="M 136.5,178.5 C 134.972,179.309 133.306,179.976 131.5,180.5C 132.552,178.744 134.219,178.077 136.5,178.5 Z"/></g>
<g><path style="opacity:0.004" fill="#f5f6f5" d="M 338.5,178.5 C 339.833,179.167 339.833,179.167 338.5,178.5 Z"/></g>
<g><path style="opacity:0.722" fill="#9f9f9f" d="M 127.5,177.5 C 128.239,177.369 128.906,177.536 129.5,178C 128.01,182.104 126.676,182.271 125.5,178.5C 126.925,180.031 127.591,179.698 127.5,177.5 Z"/></g>
<g><path style="opacity:0.863" fill="#878787" d="M 161.5,179.5 C 161.262,181.404 160.262,182.738 158.5,183.5C 158.738,181.596 159.738,180.262 161.5,179.5 Z"/></g>
<g><path style="opacity:0.816" fill="#8b8b8b" d="M 337.5,179.5 C 337.833,179.5 338.167,179.5 338.5,179.5C 339.6,180.605 340.267,181.938 340.5,183.5C 338.738,182.738 337.738,181.404 337.5,179.5 Z"/></g>
<g><path style="opacity:0.006" fill="#dedede" d="M 374.5,182.5 C 373.167,183.167 373.167,183.833 374.5,184.5C 374.158,185.338 373.492,185.672 372.5,185.5C 372.167,184.167 371.833,184.167 371.5,185.5C 370.427,184.749 370.26,183.749 371,182.5C 372.292,181.209 373.458,181.209 374.5,182.5 Z"/></g>
<g><path style="opacity:0.302" fill="#b8b8b8" d="M 380.5,179.5 C 380.5,180.167 380.5,180.833 380.5,181.5C 380.103,182.525 379.437,182.692 378.5,182C 379.066,181.005 379.733,180.172 380.5,179.5 Z"/></g>
<g><path style="opacity:0.545" fill="#8d8d8d" d="M 158.5,183.5 C 158.573,185.027 157.906,186.027 156.5,186.5C 156.427,184.973 157.094,183.973 158.5,183.5 Z"/></g>
<g><path style="opacity:0.004" fill="#f5f6f5" d="M 343.5,185.5 C 344.833,186.167 344.833,186.167 343.5,185.5 Z"/></g>
<g><path style="opacity:0.004" fill="#f5f6f5" d="M 126.5,187.5 C 125.833,188.167 125.833,188.167 126.5,187.5 Z"/></g>
<g><path style="opacity:0.004" fill="#f5f6f5" d="M 379.5,187.5 C 380.239,187.369 380.906,187.536 381.5,188C 380.563,188.692 379.897,188.525 379.5,187.5 Z"/></g>
<g><path style="opacity:0.459" fill="#a6a6a6" d="M 113.5,189.5 C 112.391,189.557 111.391,189.89 110.5,190.5C 111.053,188.448 112.053,188.115 113.5,189.5 Z"/></g>
<g><path style="opacity:0.514" fill="#8f8f8f" d="M 156.5,186.5 C 156.573,188.027 155.906,189.027 154.5,189.5C 154.427,187.973 155.094,186.973 156.5,186.5 Z"/></g>
<g><path style="opacity:0.514" fill="#8f8f8f" d="M 342.5,186.5 C 342.833,186.5 343.167,186.5 343.5,186.5C 344.11,187.391 344.443,188.391 344.5,189.5C 343.094,189.027 342.427,188.027 342.5,186.5 Z"/></g>
<g><path style="opacity:0.004" fill="#f5f6f5" d="M 345.5,188.5 C 346.833,189.167 346.833,189.167 345.5,188.5 Z"/></g>
<g><path style="opacity:0.971" fill="#515151" d="M 113.5,189.5 C 114.291,191.309 114.291,193.309 113.5,195.5C 113.56,196.043 113.893,196.376 114.5,196.5C 115.36,194.069 117.027,192.736 119.5,192.5C 120.399,193.994 120.065,195.494 118.5,197C 119.762,198.927 120.762,198.76 121.5,196.5C 122.338,196.158 122.672,195.492 122.5,194.5C 124.112,193.445 125.445,193.945 126.5,196C 125.191,198.923 123.691,201.756 122,204.5C 118.885,203.025 115.718,201.692 112.5,200.5C 111.71,199.599 110.71,198.932 109.5,198.5C 108.359,196.549 108.359,194.549 109.5,192.5C 109.328,191.508 109.662,190.842 110.5,190.5C 111.391,189.89 112.391,189.557 113.5,189.5 Z"/></g>
<g><path style="opacity:0.004" fill="#f5f6f5" d="M 375.5,189.5 C 376.239,189.369 376.906,189.536 377.5,190C 376.563,190.692 375.897,190.525 375.5,189.5 Z"/></g>
<g><path style="opacity:0.004" fill="#d4d4d4" d="M 369.5,189.5 C 370.833,189.5 372.167,189.5 373.5,189.5C 374.895,190.648 374.728,191.648 373,192.5C 371.896,191.606 370.73,190.606 369.5,189.5 Z"/></g>
<g><path style="opacity:0.424" fill="#9a9a9a" d="M 154.5,189.5 C 154.573,191.027 153.906,192.027 152.5,192.5C 152.427,190.973 153.094,189.973 154.5,189.5 Z"/></g>
<g><path style="opacity:0.424" fill="#9e9e9e" d="M 344.5,189.5 C 344.833,189.5 345.167,189.5 345.5,189.5C 346.11,190.391 346.443,191.391 346.5,192.5C 345.094,192.027 344.427,191.027 344.5,189.5 Z"/></g>
<g><path style="opacity:0.067" fill="#c6c6c6" d="M 119.5,192.5 C 117.027,192.736 115.36,194.069 114.5,196.5C 113.893,196.376 113.56,196.043 113.5,195.5C 114.391,194.739 115.058,193.739 115.5,192.5C 116.958,191.218 118.292,191.218 119.5,192.5 Z"/></g>
<g><path style="opacity:0.006" fill="#f5f6f5" d="M 383.5,195.5 C 383.369,194.761 383.536,194.094 384,193.5C 384.692,194.437 384.525,195.103 383.5,195.5 Z"/></g>
<g><path style="opacity:0.459" fill="#adadad" d="M 387.5,193.5 C 386.766,194.708 386.433,196.041 386.5,197.5C 386.167,197.5 385.833,197.5 385.5,197.5C 385.157,195.517 385.824,194.183 387.5,193.5 Z"/></g>
<g><path style="opacity:0.963" fill="#333333" d="M 389.5,195.5 C 391.06,198.459 390.727,201.126 388.5,203.5C 387.209,203.263 386.209,203.596 385.5,204.5C 384.209,204.263 383.209,204.596 382.5,205.5C 382.167,205.5 381.833,205.5 381.5,205.5C 380.209,205.263 379.209,205.596 378.5,206.5C 377.391,206.443 376.391,206.11 375.5,205.5C 374.766,204.292 374.433,202.959 374.5,201.5C 374.433,200.041 374.766,198.708 375.5,197.5C 376.167,197.833 376.833,198.167 377.5,198.5C 377.5,198.833 377.5,199.167 377.5,199.5C 377.328,200.492 377.662,201.158 378.5,201.5C 379.209,202.404 380.209,202.737 381.5,202.5C 381.737,201.209 381.404,200.209 380.5,199.5C 380.402,196.752 381.402,196.086 383.5,197.5C 383.328,198.492 383.662,199.158 384.5,199.5C 385.209,200.404 386.209,200.737 387.5,200.5C 387.737,199.209 387.404,198.209 386.5,197.5C 386.433,196.041 386.766,194.708 387.5,193.5C 389.203,192.34 389.869,193.007 389.5,195.5 Z M 385.5,197.5 C 385.833,197.5 386.167,197.5 386.5,197.5C 386.5,198.833 385.833,199.5 384.5,199.5C 384.833,198.833 385.167,198.167 385.5,197.5 Z M 379.5,199.5 C 379.833,199.5 380.167,199.5 380.5,199.5C 380.5,200.833 379.833,201.5 378.5,201.5C 378.833,200.833 379.167,200.167 379.5,199.5 Z"/></g>
<g><path style="opacity:0.341" fill="#cdcdcd" d="M 122.5,194.5 C 122.672,195.492 122.338,196.158 121.5,196.5C 120.561,195.673 120.895,195.006 122.5,194.5 Z"/></g>
<g><path style="opacity:0.004" fill="#d0d0d0" d="M 226.5,197.5 C 226.5,196.833 226.167,196.5 225.5,196.5C 226.527,195.152 227.86,194.652 229.5,195C 228.627,196.045 227.627,196.878 226.5,197.5 Z"/></g>
<g><path style="opacity:0.004" fill="#f5f6f5" d="M 349.5,195.5 C 350.833,196.167 350.833,196.167 349.5,195.5 Z"/></g>
<g><path style="opacity:0.006" fill="#d8d8d8" d="M 389.5,195.5 C 390.995,195.415 391.995,196.081 392.5,197.5C 391.253,199.042 391.253,200.542 392.5,202C 391.437,203.188 390.103,203.688 388.5,203.5C 390.727,201.126 391.06,198.459 389.5,195.5 Z"/></g>
<g><path style="opacity:0.035" fill="#dbdbdb" d="M 375.5,197.5 C 376.623,196.243 377.289,196.576 377.5,198.5C 376.833,198.167 376.167,197.833 375.5,197.5 Z"/></g>
<g><path style="opacity:0.188" fill="#cecece" d="M 109.5,192.5 C 108.359,194.549 108.359,196.549 109.5,198.5C 106.937,196.583 106.437,194.25 108,191.5C 108.383,192.056 108.883,192.389 109.5,192.5 Z"/></g>
<g><path style="opacity:0.263" fill="#a9a9a9" d="M 383.5,195.5 C 383.5,196.167 383.5,196.833 383.5,197.5C 381.402,196.086 380.402,196.752 380.5,199.5C 380.167,199.5 379.833,199.5 379.5,199.5C 379.5,198.167 379.5,196.833 379.5,195.5C 380.833,195.5 382.167,195.5 383.5,195.5 Z"/></g>
<g><path style="opacity:0.008" fill="#dfdfdf" d="M 383.5,197.5 C 384.167,197.5 384.833,197.5 385.5,197.5C 385.167,198.167 384.833,198.833 384.5,199.5C 383.662,199.158 383.328,198.492 383.5,197.5 Z"/></g>
<g><path style="opacity:0.561" fill="#999999" d="M 375.5,197.5 C 374.766,198.708 374.433,200.041 374.5,201.5C 373.876,201.083 373.543,200.416 373.5,199.5C 373.747,198.287 374.414,197.62 375.5,197.5 Z"/></g>
<g><path style="opacity:0.004" fill="#e0e0e0" d="M 377.5,199.5 C 378.167,199.5 378.833,199.5 379.5,199.5C 379.167,200.167 378.833,200.833 378.5,201.5C 377.662,201.158 377.328,200.492 377.5,199.5 Z"/></g>
<g><path style="opacity:0.2" fill="#c0c0c0" d="M 386.5,197.5 C 387.404,198.209 387.737,199.209 387.5,200.5C 386.209,200.737 385.209,200.404 384.5,199.5C 385.833,199.5 386.5,198.833 386.5,197.5 Z"/></g>
<g><path style="opacity:0.004" fill="#f5f6f5" d="M 112.5,200.5 C 112.5,200.833 112.5,201.167 112.5,201.5C 111.83,201.019 111.83,200.685 112.5,200.5 Z"/></g>
<g><path style="opacity:0.069" fill="#c7c7c7" d="M 244.5,201.5 C 244.842,200.662 245.508,200.328 246.5,200.5C 246.5,201.167 246.833,201.5 247.5,201.5C 247.158,202.338 246.492,202.672 245.5,202.5C 245.5,201.833 245.167,201.5 244.5,201.5 Z"/></g>
<g><path style="opacity:0.498" fill="#ababab" d="M 247.5,200.5 C 248.919,199.549 250.585,199.216 252.5,199.5C 253.833,200.833 255.167,200.833 256.5,199.5C 257.791,199.263 258.791,199.596 259.5,200.5C 258.833,200.5 258.5,200.833 258.5,201.5C 255.167,201.5 251.833,201.5 248.5,201.5C 248.5,200.833 248.167,200.5 247.5,200.5 Z"/></g>
<g><path style="opacity:0.004" fill="#f5f6f5" d="M 112.5,201.5 C 113.833,202.167 113.833,202.167 112.5,201.5 Z"/></g>
<g><path style="opacity:0.439" fill="#a4a4a4" d="M 223.5,199.5 C 223.833,199.5 224.167,199.5 224.5,199.5C 224.573,201.027 223.906,202.027 222.5,202.5C 222.5,201.833 222.5,201.167 222.5,200.5C 223.167,200.5 223.5,200.167 223.5,199.5 Z"/></g>
<g><path style="opacity:0.09" fill="#c8c8c8" d="M 241.5,202.5 C 241.842,201.662 242.508,201.328 243.5,201.5C 243.5,202.167 243.833,202.5 244.5,202.5C 244.158,203.338 243.492,203.672 242.5,203.5C 242.5,202.833 242.167,202.5 241.5,202.5 Z"/></g>
<g><path style="opacity:0.998" fill="#2c2c2c" d="M 247.5,201.5 C 247.833,201.5 248.167,201.5 248.5,201.5C 251.833,201.5 255.167,201.5 258.5,201.5C 259.167,201.5 259.833,201.5 260.5,201.5C 260.842,202.338 261.508,202.672 262.5,202.5C 266.358,207.269 267.358,212.603 265.5,218.5C 264.833,218.5 264.5,218.833 264.5,219.5C 263.596,220.209 263.263,221.209 263.5,222.5C 262.662,222.842 262.328,223.508 262.5,224.5C 262.167,225.833 261.833,227.167 261.5,228.5C 260.094,228.973 259.427,229.973 259.5,231.5C 258.833,231.833 258.167,232.167 257.5,232.5C 256.094,232.973 255.427,233.973 255.5,235.5C 254.5,237.167 253.167,238.5 251.5,239.5C 250.167,240.167 249.167,241.167 248.5,242.5C 248.167,243.167 247.833,243.833 247.5,244.5C 246.833,244.5 246.5,244.833 246.5,245.5C 245.833,245.5 245.5,245.833 245.5,246.5C 244.833,246.5 244.5,246.833 244.5,247.5C 242.973,247.427 241.973,248.094 241.5,249.5C 240.833,249.5 240.5,249.833 240.5,250.5C 239.508,250.328 238.842,250.662 238.5,251.5C 237.833,251.5 237.5,251.833 237.5,252.5C 237.167,252.5 236.833,252.5 236.5,252.5C 235.508,252.328 234.842,252.662 234.5,253.5C 234.5,253.833 234.5,254.167 234.5,254.5C 233.508,254.328 232.842,254.662 232.5,255.5C 232.167,255.5 231.833,255.5 231.5,255.5C 230.508,255.328 229.842,255.662 229.5,256.5C 228.508,256.328 227.842,256.662 227.5,257.5C 226.508,257.328 225.842,257.662 225.5,258.5C 224.508,258.328 223.842,258.662 223.5,259.5C 223.167,259.5 222.833,259.5 222.5,259.5C 220.716,259.893 219.05,260.559 217.5,261.5C 216.833,261.5 216.167,261.5 215.5,261.5C 215.5,260.833 215.167,260.5 214.5,260.5C 214.167,260.5 213.833,260.5 213.5,260.5C 213.158,259.662 212.492,259.328 211.5,259.5C 211.5,259.167 211.5,258.833 211.5,258.5C 211.158,257.662 210.492,257.328 209.5,257.5C 209.167,257.5 208.833,257.5 208.5,257.5C 206.833,256.833 205.167,256.167 203.5,255.5C 205.441,249.343 207.774,243.343 210.5,237.5C 211.338,237.158 211.672,236.492 211.5,235.5C 211.833,235.5 212.167,235.5 212.5,235.5C 213.906,235.027 214.573,234.027 214.5,232.5C 214.5,231.833 214.5,231.167 214.5,230.5C 214.833,230.5 215.167,230.5 215.5,230.5C 216.906,230.027 217.573,229.027 217.5,227.5C 218.906,227.027 219.573,226.027 219.5,224.5C 221.262,223.738 222.262,222.404 222.5,220.5C 224.262,219.738 225.262,218.404 225.5,216.5C 225.5,216.167 225.5,215.833 225.5,215.5C 226.167,215.5 226.5,215.167 226.5,214.5C 227.167,214.5 227.5,214.167 227.5,213.5C 228.167,213.5 228.5,213.167 228.5,212.5C 229.167,212.5 229.5,212.167 229.5,211.5C 230.167,211.5 230.5,211.167 230.5,210.5C 231.167,210.5 231.5,210.167 231.5,209.5C 232.167,209.5 232.5,209.167 232.5,208.5C 233.167,208.5 233.833,208.5 234.5,208.5C 236.404,208.262 237.738,207.262 238.5,205.5C 239.492,205.672 240.158,205.338 240.5,204.5C 241.492,204.672 242.158,204.338 242.5,203.5C 243.492,203.672 244.158,203.338 244.5,202.5C 244.833,202.5 245.167,202.5 245.5,202.5C 246.492,202.672 247.158,202.338 247.5,201.5 Z"/></g>
<g><path style="opacity:0.275" fill="#b2b2b2" d="M 380.5,199.5 C 381.404,200.209 381.737,201.209 381.5,202.5C 380.209,202.737 379.209,202.404 378.5,201.5C 379.833,201.5 380.5,200.833 380.5,199.5 Z"/></g>
<g><path style="opacity:0.008" fill="#cccccc" d="M 239.5,203.5 C 239.842,202.662 240.508,202.328 241.5,202.5C 242.167,202.5 242.5,202.833 242.5,203.5C 242.158,204.338 241.492,204.672 240.5,204.5C 240.5,203.833 240.167,203.5 239.5,203.5 Z"/></g>
<g><path style="opacity:0.008" fill="#d1d1d1" d="M 237.5,204.5 C 237.842,203.662 238.508,203.328 239.5,203.5C 240.167,203.5 240.5,203.833 240.5,204.5C 240.158,205.338 239.492,205.672 238.5,205.5C 238.5,204.833 238.167,204.5 237.5,204.5 Z"/></g>
<g><path style="opacity:0.004" fill="#e7e7e7" d="M 385.5,204.5 C 386.209,203.596 387.209,203.263 388.5,203.5C 390.031,204.925 389.698,205.591 387.5,205.5C 387.158,204.662 386.492,204.328 385.5,204.5 Z"/></g>
<g><path style="opacity:0.522" fill="#8f8f8f" d="M 222.5,202.5 C 222.573,204.027 221.906,205.027 220.5,205.5C 220.5,204.833 220.5,204.167 220.5,203.5C 221.167,203.167 221.833,202.833 222.5,202.5 Z"/></g>
<g><path style="opacity:0.565" fill="#9e9e9e" d="M 296.5,203.5 C 297.167,203.5 297.833,203.5 298.5,203.5C 297.738,205.262 296.404,206.262 294.5,206.5C 295.167,205.5 295.833,204.5 296.5,203.5 Z"/></g>
<g><path style="opacity:0.004" fill="#ebebeb" d="M 382.5,205.5 C 383.209,204.596 384.209,204.263 385.5,204.5C 385.842,205.338 386.508,205.672 387.5,205.5C 386.791,206.404 385.791,206.737 384.5,206.5C 384.158,205.662 383.492,205.328 382.5,205.5 Z"/></g>
<g><path style="opacity:0.005" fill="#e9e9e9" d="M 104.5,207.5 C 104.068,208.71 103.401,209.71 102.5,210.5C 102.351,209.448 102.517,208.448 103,207.5C 103.69,206.262 104.19,206.262 104.5,207.5 Z"/></g>
<g><path style="opacity:0.067" fill="#cecece" d="M 375.5,205.5 C 376.391,206.11 377.391,206.443 378.5,206.5C 378.5,206.833 378.5,207.167 378.5,207.5C 376.821,207.715 375.821,207.048 375.5,205.5 Z"/></g>
<g><path style="opacity:0.006" fill="#e8e8e8" d="M 378.5,206.5 C 379.209,205.596 380.209,205.263 381.5,205.5C 382.209,206.404 383.209,206.737 384.5,206.5C 382.811,209 380.478,209.833 377.5,209C 378.056,208.617 378.389,208.117 378.5,207.5C 381.167,207.167 381.167,206.833 378.5,206.5 Z"/></g>
<g><path style="opacity:0.973" fill="#454545" d="M 112.5,210.5 C 112.711,212.424 113.377,212.757 114.5,211.5C 121.098,208.188 122.098,209.355 117.5,215C 116.552,215.483 115.552,215.649 114.5,215.5C 113.761,215.369 113.094,215.536 112.5,216C 113.563,217.188 114.897,217.688 116.5,217.5C 116.833,217.5 117.167,217.5 117.5,217.5C 117.475,221.284 115.808,222.284 112.5,220.5C 109.916,218.528 106.916,217.528 103.5,217.5C 103.167,217.5 102.833,217.5 102.5,217.5C 101.89,216.609 101.557,215.609 101.5,214.5C 101.433,213.041 101.766,211.708 102.5,210.5C 103.401,209.71 104.068,208.71 104.5,207.5C 106.854,206.316 109.187,206.482 111.5,208C 112.252,208.671 112.586,209.504 112.5,210.5 Z"/></g>
<g><path style="opacity:0.31" fill="#afafaf" d="M 220.5,205.5 C 220.573,207.027 219.906,208.027 218.5,208.5C 218.5,207.833 218.5,207.167 218.5,206.5C 219.167,206.167 219.833,205.833 220.5,205.5 Z"/></g>
<g><path style="opacity:0.882" fill="#888888" d="M 235.5,205.5 C 235.842,204.662 236.508,204.328 237.5,204.5C 238.167,204.5 238.5,204.833 238.5,205.5C 237.738,207.262 236.404,208.262 234.5,208.5C 234.5,208.167 234.5,207.833 234.5,207.5C 235.167,207.5 235.5,207.167 235.5,206.5C 236.833,206.167 236.833,205.833 235.5,205.5 Z"/></g>
<g><path style="opacity:0.702" fill="#8f8f8f" d="M 294.5,206.5 C 292.431,209.573 289.764,211.906 286.5,213.5C 288.569,210.427 291.236,208.094 294.5,206.5 Z"/></g>
<g><path style="opacity:0.09" fill="#d2d2d2" d="M 106.5,211.5 C 107.779,210.285 108.779,210.618 109.5,212.5C 108.833,212.5 108.167,212.5 107.5,212.5C 107.5,211.833 107.167,211.5 106.5,211.5 Z"/></g>
<g><path style="opacity:0.18" fill="#c8c8c8" d="M 112.5,210.5 C 113.167,210.833 113.833,211.167 114.5,211.5C 113.377,212.757 112.711,212.424 112.5,210.5 Z"/></g>
<g><path style="opacity:0.255" fill="#d7d7d7" d="M 217.5,208.5 C 217.833,208.5 218.167,208.5 218.5,208.5C 218.34,210.153 217.674,211.486 216.5,212.5C 215.833,212.5 215.5,212.167 215.5,211.5C 216.338,211.158 216.672,210.492 216.5,209.5C 217.167,209.5 217.5,209.167 217.5,208.5 Z"/></g>
<g><path style="opacity:0.188" fill="#c2c2c2" d="M 268.5,208.5 C 269.833,210.833 269.833,213.167 268.5,215.5C 267.562,213.244 267.562,210.91 268.5,208.5 Z"/></g>
<g><path style="opacity:0.008" fill="#dfdfdf" d="M 316.5,205.5 C 318.017,207.462 318.684,209.795 318.5,212.5C 318.493,214.369 318.16,216.036 317.5,217.5C 317.81,214.287 317.477,211.287 316.5,208.5C 316.5,207.5 316.5,206.5 316.5,205.5 Z"/></g>
<g><path style="opacity:0.004" fill="#f5f6f5" d="M 100.5,214.5 C 99.475,214.103 99.3083,213.437 100,212.5C 100.464,213.094 100.631,213.761 100.5,214.5 Z"/></g>
<g><path style="opacity:0.008" fill="#cecece" d="M 105.5,212.5 C 105.833,213.833 106.167,213.833 106.5,212.5C 106.833,212.5 107.167,212.5 107.5,212.5C 107.842,213.338 108.508,213.672 109.5,213.5C 109.631,214.376 109.298,215.043 108.5,215.5C 107.069,215.023 105.736,214.357 104.5,213.5C 104.624,212.893 104.957,212.56 105.5,212.5 Z"/></g>
<g><path style="opacity:0.008" fill="#d6d6d6" d="M 228.5,211.5 C 228.5,211.833 228.5,212.167 228.5,212.5C 227.833,212.5 227.5,212.833 227.5,213.5C 226.833,213.5 226.5,213.833 226.5,214.5C 225.833,214.5 225.5,214.833 225.5,215.5C 225.167,215.5 224.833,215.5 224.5,215.5C 224.833,213.167 226.167,211.833 228.5,211.5 Z"/></g>
<g><path style="opacity:0.082" fill="#d4d4d4" d="M 314.5,205.5 C 315.167,206.5 315.833,207.5 316.5,208.5C 316.806,211.385 316.473,214.052 315.5,216.5C 315.448,212.802 315.114,209.135 314.5,205.5 Z"/></g>
<g><path style="opacity:0.545" fill="#a4a4a4" d="M 387.5,213.5 C 384.487,213.107 381.82,213.774 379.5,215.5C 379.414,214.504 379.748,213.671 380.5,213C 383.039,212.204 385.372,212.371 387.5,213.5 Z"/></g>
<g><path style="opacity:0.97" fill="#3c3c3c" d="M 387.5,213.5 C 387.427,215.027 388.094,216.027 389.5,216.5C 389.5,217.833 390.167,218.5 391.5,218.5C 392.833,218.5 394.167,218.5 395.5,218.5C 395.5,218.833 395.5,219.167 395.5,219.5C 395.218,220.778 394.551,221.778 393.5,222.5C 392.833,222.5 392.5,222.833 392.5,223.5C 390.5,223.5 388.5,223.5 386.5,223.5C 384.05,223.702 381.717,223.369 379.5,222.5C 378.244,220.059 378.244,217.726 379.5,215.5C 381.82,213.774 384.487,213.107 387.5,213.5 Z M 384.5,217.5 C 385.167,217.833 385.833,218.167 386.5,218.5C 386.5,218.833 386.5,219.167 386.5,219.5C 385.167,219.5 384.5,218.833 384.5,217.5 Z"/></g>
<g><path style="opacity:0.004" fill="#d5d5d5" d="M 283.5,213.5 C 283.5,214.167 283.5,214.833 283.5,215.5C 282.833,215.5 282.5,215.833 282.5,216.5C 282.167,216.5 281.833,216.5 281.5,216.5C 281.427,214.973 282.094,213.973 283.5,213.5 Z"/></g>
<g><path style="opacity:0.737" fill="#989898" d="M 355.5,211.5 C 356.924,213.515 357.59,215.848 357.5,218.5C 356.076,216.485 355.41,214.152 355.5,211.5 Z"/></g>
<g><path style="opacity:0.325" fill="#c3c3c3" d="M 100.5,214.5 C 100.833,214.5 101.167,214.5 101.5,214.5C 101.557,215.609 101.89,216.609 102.5,217.5C 100.952,217.179 100.285,216.179 100.5,214.5 Z"/></g>
<g><path style="opacity:0.271" fill="#aeaeae" d="M 387.5,213.5 C 388.906,213.973 389.573,214.973 389.5,216.5C 388.094,216.027 387.427,215.027 387.5,213.5 Z"/></g>
<g><path style="opacity:0.325" fill="#b8b8b8" d="M 114.5,215.5 C 115.167,216.167 115.833,216.833 116.5,217.5C 114.897,217.688 113.563,217.188 112.5,216C 113.094,215.536 113.761,215.369 114.5,215.5 Z"/></g>
<g><path style="opacity:0.004" fill="#f5f6f5" d="M 117.5,216.5 C 118.833,217.167 118.833,217.167 117.5,216.5 Z"/></g>
<g><path style="opacity:0.463" fill="#aeaeae" d="M 286.5,213.5 C 285.92,215.749 284.587,217.415 282.5,218.5C 282.5,217.833 282.5,217.167 282.5,216.5C 283.167,216.5 283.5,216.167 283.5,215.5C 284.5,214.833 285.5,214.167 286.5,213.5 Z"/></g>
<g><path style="opacity:0.4" fill="#c5c5c5" d="M 384.5,217.5 C 384.5,217.167 384.5,216.833 384.5,216.5C 385.833,216.5 386.5,217.167 386.5,218.5C 385.833,218.167 385.167,217.833 384.5,217.5 Z"/></g>
<g><path style="opacity:0.006" fill="#ededed" d="M 395.5,218.5 C 394.167,218.5 392.833,218.5 391.5,218.5C 390.537,217.637 390.537,216.97 391.5,216.5C 393.026,216.994 394.359,217.661 395.5,218.5 Z"/></g>
<g><path style="opacity:0.796" fill="#9d9d9d" d="M 103.5,217.5 C 106.916,217.528 109.916,218.528 112.5,220.5C 109.215,220.072 106.215,219.072 103.5,217.5 Z"/></g>
<g><path style="opacity:0.055" fill="#e0e0e0" d="M 213.5,215.5 C 214.167,215.5 214.833,215.5 215.5,215.5C 215.011,216.995 214.345,218.329 213.5,219.5C 213.5,218.833 213.167,218.5 212.5,218.5C 212.5,218.167 212.5,217.833 212.5,217.5C 213.338,217.158 213.672,216.492 213.5,215.5 Z"/></g>
<g><path style="opacity:0.773" fill="#939393" d="M 224.5,216.5 C 224.833,216.5 225.167,216.5 225.5,216.5C 225.262,218.404 224.262,219.738 222.5,220.5C 222.5,219.833 222.5,219.167 222.5,218.5C 223.167,218.5 223.5,218.167 223.5,217.5C 224.167,217.5 224.5,217.167 224.5,216.5 Z"/></g>
<g><path style="opacity:0.918" fill="#707070" d="M 142.5,215.5 C 142.59,218.152 141.924,220.485 140.5,222.5C 140.41,219.848 141.076,217.515 142.5,215.5 Z"/></g>
<g><path style="opacity:0.006" fill="#eaeaea" d="M 211.5,217.5 C 211.5,218.167 211.833,218.5 212.5,218.5C 212.328,219.492 212.662,220.158 213.5,220.5C 213.158,221.338 212.492,221.672 211.5,221.5C 211.672,220.508 211.338,219.842 210.5,219.5C 210.328,218.508 210.662,217.842 211.5,217.5 Z"/></g>
<g><path style="opacity:0.005" fill="#e3e3e3" d="M 267.5,217.5 C 267.833,217.5 268.167,217.5 268.5,217.5C 268.423,218.75 267.756,219.583 266.5,220C 266.728,220.399 267.062,220.565 267.5,220.5C 267.423,221.75 266.756,222.583 265.5,223C 265.728,223.399 266.062,223.565 266.5,223.5C 265.974,225.23 264.974,226.564 263.5,227.5C 263.737,226.209 263.404,225.209 262.5,224.5C 262.328,223.508 262.662,222.842 263.5,222.5C 263.263,221.209 263.596,220.209 264.5,219.5C 265.11,221.85 265.444,221.517 265.5,218.5C 266.492,218.672 267.158,218.338 267.5,217.5 Z"/></g>
<g><path style="opacity:0.827" fill="#8b8b8b" d="M 282.5,218.5 C 282.262,220.404 281.262,221.738 279.5,222.5C 279.5,221.833 279.5,221.167 279.5,220.5C 280.5,219.833 281.5,219.167 282.5,218.5 Z"/></g>
<g><path style="opacity:0.298" fill="#b7b7b7" d="M 383.5,216.5 C 383.5,217.167 383.833,217.5 384.5,217.5C 384.5,218.833 385.167,219.5 386.5,219.5C 385.081,220.451 383.415,220.784 381.5,220.5C 381.229,218.62 381.896,217.287 383.5,216.5 Z"/></g>
<g><path style="opacity:0.004" fill="#d3d3d3" d="M 220.5,219.5 C 220.5,220.167 220.5,220.833 220.5,221.5C 219.833,221.5 219.5,221.833 219.5,222.5C 219.167,222.5 218.833,222.5 218.5,222.5C 218.427,220.973 219.094,219.973 220.5,219.5 Z"/></g>
<g><path style="opacity:0.005" fill="#f0f0f0" d="M 210.5,221.5 C 210.833,221.5 211.167,221.5 211.5,221.5C 211.5,222.167 211.833,222.5 212.5,222.5C 212.423,223.75 211.756,224.583 210.5,225C 210.728,225.399 211.062,225.565 211.5,225.5C 211.167,226.167 210.833,226.833 210.5,227.5C 209.833,227.5 209.5,227.833 209.5,228.5C 208.662,228.158 208.328,227.492 208.5,226.5C 209.404,225.791 209.737,224.791 209.5,223.5C 210.338,223.158 210.672,222.492 210.5,221.5 Z"/></g>
<g><path style="opacity:0.216" fill="#c7c7c7" d="M 395.5,219.5 C 396.404,220.209 396.737,221.209 396.5,222.5C 395.5,222.5 394.5,222.5 393.5,222.5C 394.551,221.778 395.218,220.778 395.5,219.5 Z"/></g>
<g><path style="opacity:0.007" fill="#f4f4f4" d="M 113.5,225.5 C 112.833,225.5 112.167,225.5 111.5,225.5C 112.052,223.297 113.385,222.464 115.5,223C 114.619,223.708 113.953,224.542 113.5,225.5 Z"/></g>
<g><path style="opacity:0.596" fill="#959595" d="M 222.5,220.5 C 222.262,222.404 221.262,223.738 219.5,224.5C 219.5,223.833 219.5,223.167 219.5,222.5C 220.167,222.5 220.5,222.167 220.5,221.5C 221.167,221.167 221.833,220.833 222.5,220.5 Z"/></g>
<g><path style="opacity:0.005" fill="#d8d8d8" d="M 379.5,222.5 C 381.717,223.369 384.05,223.702 386.5,223.5C 386.918,224.222 387.584,224.722 388.5,225C 384.316,227.608 381.316,226.775 379.5,222.5 Z"/></g>
<g><path style="opacity:0.004" fill="#f5f6f5" d="M 392.5,223.5 C 393.239,223.369 393.906,223.536 394.5,224C 393.563,224.692 392.897,224.525 392.5,223.5 Z"/></g>
<g><path style="opacity:0.569" fill="#9b9b9b" d="M 279.5,222.5 C 279.262,224.404 278.262,225.738 276.5,226.5C 276.5,225.833 276.5,225.167 276.5,224.5C 277.5,223.833 278.5,223.167 279.5,222.5 Z"/></g>
<g><path style="opacity:0.051" fill="#dadada" d="M 317.5,217.5 C 317.514,221.475 316.181,224.808 313.5,227.5C 314.455,225.254 315.122,222.921 315.5,220.5C 316.167,219.5 316.833,218.5 317.5,217.5 Z"/></g>
<g><path style="opacity:0.486" fill="#9f9f9f" d="M 357.5,218.5 C 358.924,220.515 359.59,222.848 359.5,225.5C 358.076,223.485 357.41,221.152 357.5,218.5 Z"/></g>
<g><path style="opacity:0.911" fill="#626262" d="M 111.5,225.5 C 112.167,225.5 112.833,225.5 113.5,225.5C 114.147,226.274 114.48,227.274 114.5,228.5C 112.018,244.161 112.018,259.827 114.5,275.5C 114.41,278.152 115.076,280.485 116.5,282.5C 116.5,282.833 116.5,283.167 116.5,283.5C 116.784,285.415 116.451,287.081 115.5,288.5C 115.167,288.5 114.833,288.5 114.5,288.5C 113.113,282.231 112.113,275.898 111.5,269.5C 111.795,267.265 111.461,265.265 110.5,263.5C 109.266,253.177 109.266,242.843 110.5,232.5C 111.404,231.791 111.737,230.791 111.5,229.5C 111.5,228.167 111.5,226.833 111.5,225.5 Z"/></g>
<g><path style="opacity:0.475" fill="#9b9b9b" d="M 219.5,224.5 C 219.573,226.027 218.906,227.027 217.5,227.5C 217.5,226.833 217.5,226.167 217.5,225.5C 218.167,225.167 218.833,224.833 219.5,224.5 Z"/></g>
<g><path style="opacity:0.005" fill="#e9e9e9" d="M 111.5,229.5 C 111.737,230.791 111.404,231.791 110.5,232.5C 109.387,231.054 109.22,229.387 110,227.5C 110.278,228.416 110.778,229.082 111.5,229.5 Z"/></g>
<g><path style="opacity:0.006" fill="#dadada" d="M 311.5,228.5 C 312.167,228.5 312.833,228.5 313.5,228.5C 313.068,229.71 312.401,230.71 311.5,231.5C 311.5,230.5 311.5,229.5 311.5,228.5 Z"/></g>
<g><path style="opacity:0.008" fill="#d4d4d4" d="M 214.5,228.5 C 214.5,229.167 214.5,229.833 214.5,230.5C 213.833,230.833 213.167,231.167 212.5,231.5C 212.427,229.973 213.094,228.973 214.5,228.5 Z"/></g>
<g><path style="opacity:0.345" fill="#a9a9a9" d="M 217.5,227.5 C 217.573,229.027 216.906,230.027 215.5,230.5C 215.5,229.833 215.5,229.167 215.5,228.5C 216.167,228.167 216.833,227.833 217.5,227.5 Z"/></g>
<g><path style="opacity:0.439" fill="#acacac" d="M 275.5,228.5 C 275.262,230.404 274.262,231.738 272.5,232.5C 272.5,231.833 272.5,231.167 272.5,230.5C 273.5,229.833 274.5,229.167 275.5,228.5 Z"/></g>
<g><path style="opacity:0.208" fill="#d4d4d4" d="M 261.5,228.5 C 262.167,228.5 262.833,228.5 263.5,228.5C 262.876,230.754 261.543,232.421 259.5,233.5C 259.5,232.833 259.5,232.167 259.5,231.5C 260.906,231.027 261.573,230.027 261.5,228.5 Z"/></g>
<g><path style="opacity:0.812" fill="#8c8c8c" d="M 311.5,231.5 C 311.262,233.404 310.262,234.738 308.5,235.5C 308.5,234.833 308.5,234.167 308.5,233.5C 309.5,232.833 310.5,232.167 311.5,231.5 Z"/></g>
<g><path style="opacity:0.983" fill="#4e4e4e" d="M 395.5,234.5 C 395.427,236.027 396.094,237.027 397.5,237.5C 398.424,241.884 397.091,245.218 393.5,247.5C 390.833,247.5 388.167,247.5 385.5,247.5C 378.875,242.413 378.875,237.246 385.5,232C 388.167,231.333 390.833,231.333 393.5,232C 394.381,232.708 395.047,233.542 395.5,234.5 Z M 391.5,237.5 C 389.833,237.5 388.167,237.5 386.5,237.5C 388.286,235.078 389.952,235.078 391.5,237.5 Z M 386.5,237.5 C 386.366,239.292 386.699,240.958 387.5,242.5C 386.351,242.209 385.684,241.376 385.5,240C 385.528,238.93 385.861,238.097 386.5,237.5 Z M 391.5,237.5 C 394.167,239.167 394.167,240.833 391.5,242.5C 392.833,240.833 392.833,239.167 391.5,237.5 Z M 388.5,238.5 C 390.76,239.238 390.927,240.238 389,241.5C 387.272,240.648 387.105,239.648 388.5,238.5 Z"/></g>
<g><path style="opacity:0.008" fill="#d3d3d3" d="M 257.5,232.5 C 257.5,233.167 257.5,233.833 257.5,234.5C 256.833,234.833 256.167,235.167 255.5,235.5C 255.427,233.973 256.094,232.973 257.5,232.5 Z"/></g>
<g><path style="opacity:0.392" fill="#a2a2a2" d="M 214.5,232.5 C 214.573,234.027 213.906,235.027 212.5,235.5C 212.5,234.833 212.5,234.167 212.5,233.5C 213.167,233.167 213.833,232.833 214.5,232.5 Z"/></g>
<g><path style="opacity:0.02" fill="#dcdcdc" d="M 270.5,233.5 C 271.167,233.5 271.833,233.5 272.5,233.5C 271.974,235.23 270.974,236.564 269.5,237.5C 269.5,236.833 269.5,236.167 269.5,235.5C 270.338,235.158 270.672,234.492 270.5,233.5 Z"/></g>
<g><path style="opacity:0.318" fill="#b9b9b9" d="M 259.5,233.5 C 259.573,235.027 258.906,236.027 257.5,236.5C 257.5,235.833 257.5,235.167 257.5,234.5C 258.167,234.167 258.833,233.833 259.5,233.5 Z"/></g>
<g><path style="opacity:0.439" fill="#bcbcbc" d="M 209.5,232.5 C 209.409,234.698 210.075,235.031 211.5,233.5C 211.5,234.167 211.5,234.833 211.5,235.5C 210.662,235.842 210.328,236.508 210.5,237.5C 209.272,238.306 208.272,239.306 207.5,240.5C 206.811,239.226 205.977,239.226 205,240.5C 204.536,239.906 204.369,239.239 204.5,238.5C 205.404,237.791 205.737,236.791 205.5,235.5C 206.268,236.263 206.768,237.263 207,238.5C 207.49,237.207 207.657,235.873 207.5,234.5C 208.167,233.833 208.833,233.167 209.5,232.5 Z"/></g>
<g><path style="opacity:0.333" fill="#aaaaaa" d="M 395.5,234.5 C 396.906,234.973 397.573,235.973 397.5,237.5C 396.094,237.027 395.427,236.027 395.5,234.5 Z"/></g>
<g><path style="opacity:0.007" fill="#f5f6f5" d="M 386.5,237.5 C 388.167,237.5 389.833,237.5 391.5,237.5C 392.833,239.167 392.833,240.833 391.5,242.5C 390.167,242.5 388.833,242.5 387.5,242.5C 386.699,240.958 386.366,239.292 386.5,237.5 Z M 388.5,238.5 C 387.105,239.648 387.272,240.648 389,241.5C 390.927,240.238 390.76,239.238 388.5,238.5 Z"/></g>
<g><path style="opacity:0.004" fill="#d7d7d7" d="M 251.5,239.5 C 251.5,240.167 251.5,240.833 251.5,241.5C 250.833,241.5 250.5,241.833 250.5,242.5C 249.833,242.5 249.167,242.5 248.5,242.5C 249.167,241.167 250.167,240.167 251.5,239.5 Z"/></g>
<g><path style="opacity:0.078" fill="#d1d1d1" d="M 266.5,239.5 C 266.25,241.674 265.25,243.341 263.5,244.5C 263.75,242.326 264.75,240.659 266.5,239.5 Z"/></g>
<g><path style="opacity:0.671" fill="#929292" d="M 300.5,241.5 C 301.167,241.5 301.833,241.5 302.5,241.5C 302.027,242.906 301.027,243.573 299.5,243.5C 299.833,242.833 300.167,242.167 300.5,241.5 Z"/></g>
<g><path style="opacity:0.22" fill="#c6c6c6" d="M 282.5,245.5 C 281.833,245.5 281.5,245.833 281.5,246.5C 280.957,246.44 280.624,246.107 280.5,245.5C 281.257,244.227 281.923,244.227 282.5,245.5 Z"/></g>
<g><path style="opacity:0.718" fill="#909090" d="M 297.5,243.5 C 298.167,243.5 298.833,243.5 299.5,243.5C 299.027,244.906 298.027,245.573 296.5,245.5C 296.833,244.833 297.167,244.167 297.5,243.5 Z"/></g>
<g><path style="opacity:0.004" fill="#c2c2c2" d="M 282.5,245.5 C 283.5,245.833 284.167,246.5 284.5,247.5C 284.5,247.833 284.5,248.167 284.5,248.5C 282.973,248.573 281.973,247.906 281.5,246.5C 282.167,246.5 282.5,246.167 282.5,245.5 Z"/></g>
<g><path style="opacity:0.78" fill="#868686" d="M 247.5,244.5 C 248.167,244.5 248.833,244.5 249.5,244.5C 248.089,246.914 246.089,248.581 243.5,249.5C 243.833,248.833 244.167,248.167 244.5,247.5C 245.167,247.5 245.5,247.167 245.5,246.5C 246.167,246.5 246.5,246.167 246.5,245.5C 247.167,245.5 247.5,245.167 247.5,244.5 Z"/></g>
<g><path style="opacity:0.553" fill="#acacac" d="M 385.5,247.5 C 388.167,247.5 390.833,247.5 393.5,247.5C 393.672,248.492 393.338,249.158 392.5,249.5C 390.167,248.833 387.833,248.167 385.5,247.5 Z"/></g>
<g><path style="opacity:0.005" fill="#f5f6f5" d="M 392.5,249.5 C 390.712,250.622 388.712,250.789 386.5,250C 388.473,249.505 390.473,249.338 392.5,249.5 Z"/></g>
<g><path style="opacity:0.004" fill="#f5f6f5" d="M 200.5,252.5 C 201.222,252.082 201.722,251.416 202,250.5C 202.774,252.403 202.44,254.07 201,255.5C 200.517,254.552 200.351,253.552 200.5,252.5 Z"/></g>
<g><path style="opacity:0.006" fill="#dbdbdb" d="M 265.5,246.5 C 264.674,249.485 263.341,252.151 261.5,254.5C 261.5,253.5 261.5,252.5 261.5,251.5C 262.338,251.158 262.672,250.492 262.5,249.5C 263.338,249.158 263.672,248.492 263.5,247.5C 264.167,247.167 264.833,246.833 265.5,246.5 Z"/></g>
<g><path style="opacity:0.004" fill="#cbcbcb" d="M 234.5,253.5 C 234.842,252.662 235.508,252.328 236.5,252.5C 236.5,253.167 236.833,253.5 237.5,253.5C 237.158,254.338 236.492,254.672 235.5,254.5C 235.5,253.833 235.167,253.5 234.5,253.5 Z"/></g>
<g><path style="opacity:0.722" fill="#8e8e8e" d="M 238.5,251.5 C 239.167,251.5 239.833,251.5 240.5,251.5C 240.027,252.906 239.027,253.573 237.5,253.5C 237.5,253.167 237.5,252.833 237.5,252.5C 238.167,252.5 238.5,252.167 238.5,251.5 Z"/></g>
<g><path style="opacity:0.192" fill="#c5c5c5" d="M 260.5,251.5 C 260.5,252.5 260.5,253.5 260.5,254.5C 259.662,254.842 259.328,255.508 259.5,256.5C 259.167,256.5 258.833,256.5 258.5,256.5C 258.402,254.447 259.069,252.78 260.5,251.5 Z"/></g>
<g><path style="opacity:0.09" fill="#c7c7c7" d="M 203.5,255.5 C 205.167,256.167 206.833,256.833 208.5,257.5C 208.5,257.833 208.5,258.167 208.5,258.5C 206.5,258.5 204.5,258.5 202.5,258.5C 202.263,257.209 202.596,256.209 203.5,255.5 Z"/></g>
<g><path style="opacity:0.063" fill="#c4c4c4" d="M 209.5,257.5 C 210.492,257.328 211.158,257.662 211.5,258.5C 210.833,258.5 210.5,258.833 210.5,259.5C 209.508,259.672 208.842,259.338 208.5,258.5C 209.167,258.5 209.5,258.167 209.5,257.5 Z"/></g>
<g><path style="opacity:0.039" fill="#cdcdcd" d="M 225.5,258.5 C 225.842,257.662 226.508,257.328 227.5,257.5C 227.672,258.492 227.338,259.158 226.5,259.5C 226.5,258.833 226.167,258.5 225.5,258.5 Z"/></g>
<g><path style="opacity:0.918" fill="#8c8c8c" d="M 231.5,255.5 C 231.5,256.167 231.833,256.5 232.5,256.5C 231.713,258.104 230.38,258.771 228.5,258.5C 228.5,257.833 228.167,257.5 227.5,257.5C 227.842,256.662 228.508,256.328 229.5,256.5C 229.842,255.662 230.508,255.328 231.5,255.5 Z"/></g>
<g><path style="opacity:0.969" fill="#2c2c2c" d="M 393.5,257.5 C 394.5,257.5 395.5,257.5 396.5,257.5C 396.5,258.5 396.5,259.5 396.5,260.5C 395.549,261.919 395.216,263.585 395.5,265.5C 393.167,265.5 390.833,265.5 388.5,265.5C 386.833,265.5 385.167,265.5 383.5,265.5C 382.791,264.596 381.791,264.263 380.5,264.5C 380.5,263.5 380.5,262.5 380.5,261.5C 382.167,261.5 383.833,261.5 385.5,261.5C 386.167,261.5 386.833,261.5 387.5,261.5C 389.265,262.461 391.265,262.795 393.5,262.5C 393.5,260.833 393.5,259.167 393.5,257.5 Z"/></g>
<g><path style="opacity:0.176" fill="#c6c6c6" d="M 393.5,257.5 C 394.568,256.566 395.901,256.232 397.5,256.5C 397.768,258.099 397.434,259.432 396.5,260.5C 396.5,259.5 396.5,258.5 396.5,257.5C 395.5,257.5 394.5,257.5 393.5,257.5 Z"/></g>
<g><path style="opacity:0.969" fill="#373737" d="M 202.5,258.5 C 204.5,258.5 206.5,258.5 208.5,258.5C 208.842,259.338 209.508,259.672 210.5,259.5C 210.833,259.5 211.167,259.5 211.5,259.5C 211.5,260.167 211.833,260.5 212.5,260.5C 211.666,261.748 210.333,262.415 208.5,262.5C 205.607,262.931 203.607,261.931 202.5,259.5C 202.5,259.167 202.5,258.833 202.5,258.5 Z"/></g>
<g><path style="opacity:0.004" fill="#f5f6f5" d="M 380.5,259.5 C 380.897,258.475 381.563,258.308 382.5,259C 381.906,259.464 381.239,259.631 380.5,259.5 Z"/></g>
<g><path style="opacity:0.012" fill="#dbdbdb" d="M 225.5,258.5 C 225.5,259.833 224.833,260.5 223.5,260.5C 223.5,260.167 223.5,259.833 223.5,259.5C 223.842,258.662 224.508,258.328 225.5,258.5 Z"/></g>
<g><path style="opacity:0.004" fill="#e7e7e7" d="M 260.5,254.5 C 260.833,254.5 261.167,254.5 261.5,254.5C 260.332,259.324 258.998,263.991 257.5,268.5C 257.5,266.5 257.5,264.5 257.5,262.5C 258.404,261.791 258.737,260.791 258.5,259.5C 259.404,258.791 259.737,257.791 259.5,256.5C 260.338,256.158 260.672,255.492 260.5,254.5 Z"/></g>
<g><path style="opacity:0.004" fill="#f5f6f5" d="M 389.5,260.5 C 389.897,259.475 390.563,259.308 391.5,260C 390.906,260.464 390.239,260.631 389.5,260.5 Z"/></g>
<g><path style="opacity:0.004" fill="#dcdcdc" d="M 222.5,259.5 C 221.514,261.408 219.848,262.408 217.5,262.5C 217.5,262.167 217.5,261.833 217.5,261.5C 219.05,260.559 220.716,259.893 222.5,259.5 Z"/></g>
<g><path style="opacity:0.01" fill="#e4e4e4" d="M 202.5,259.5 C 203.607,261.931 205.607,262.931 208.5,262.5C 210.333,262.415 211.666,261.748 212.5,260.5C 212.833,260.5 213.167,260.5 213.5,260.5C 213.833,263.167 214.167,263.167 214.5,260.5C 215.167,260.5 215.5,260.833 215.5,261.5C 215.842,262.338 216.508,262.672 217.5,262.5C 217.5,263.167 217.5,263.833 217.5,264.5C 216.662,264.842 216.328,265.508 216.5,266.5C 215.733,265.828 215.066,264.995 214.5,264C 210.247,263.8 206.08,263.3 202,262.5C 201.79,264.058 201.29,265.391 200.5,266.5C 200.768,264.901 200.434,263.568 199.5,262.5C 199.457,258.107 199.957,257.774 201,261.5C 201.278,260.584 201.778,259.918 202.5,259.5 Z"/></g>
<g><path style="opacity:0.263" fill="#bfbfbf" d="M 385.5,261.5 C 383.833,261.5 382.167,261.5 380.5,261.5C 380.5,262.5 380.5,263.5 380.5,264.5C 381.791,264.263 382.791,264.596 383.5,265.5C 382.167,265.5 380.833,265.5 379.5,265.5C 379.5,263.833 379.5,262.167 379.5,260.5C 381.735,260.205 383.735,260.539 385.5,261.5 Z"/></g>
<g><path style="opacity:0.235" fill="#b3b3b3" d="M 393.5,257.5 C 393.5,259.167 393.5,260.833 393.5,262.5C 391.265,262.795 389.265,262.461 387.5,261.5C 389.167,261.5 390.833,261.5 392.5,261.5C 392.232,259.901 392.566,258.568 393.5,257.5 Z"/></g>
<g><path style="opacity:0.871" fill="#898989" d="M 217.5,264.5 C 219.048,264.821 219.715,265.821 219.5,267.5C 218.599,266.71 217.932,265.71 217.5,264.5 Z"/></g>
<g><path style="opacity:0.18" fill="#b5b5b5" d="M 257.5,259.5 C 257.5,260.5 257.5,261.5 257.5,262.5C 256.833,263.833 256.167,265.167 255.5,266.5C 255.66,264.801 255.494,263.134 255,261.5C 251.631,265.037 248.131,268.371 244.5,271.5C 244.5,270.833 244.167,270.5 243.5,270.5C 247.271,267.232 250.938,263.732 254.5,260C 255.448,259.517 256.448,259.351 257.5,259.5 Z"/></g>
<g><path style="opacity:0.596" fill="#979797" d="M 396.5,260.5 C 397.293,268.059 394.626,269.726 388.5,265.5C 390.833,265.5 393.167,265.5 395.5,265.5C 395.216,263.585 395.549,261.919 396.5,260.5 Z"/></g>
<g><path style="opacity:0.004" fill="#f5f6f5" d="M 381.5,267.5 C 383.288,266.378 385.288,266.211 387.5,267C 385.527,267.495 383.527,267.662 381.5,267.5 Z"/></g>
<g><path style="opacity:0.004" fill="#d9d9d9" d="M 110.5,263.5 C 111.461,265.265 111.795,267.265 111.5,269.5C 110.732,270.263 110.232,271.263 110,272.5C 109.699,269.493 109.865,266.493 110.5,263.5 Z"/></g>
<g><path style="opacity:0.204" fill="#b1b1b1" d="M 293.5,277.5 C 296.832,272.401 301.665,269.401 308,268.5C 308.833,268.833 309.667,269.167 310.5,269.5C 303.889,270.307 298.222,272.974 293.5,277.5 Z"/></g>
<g><path style="opacity:0.133" fill="#d8d8d8" d="M 242.5,271.5 C 242.262,273.404 241.262,274.738 239.5,275.5C 239.738,273.596 240.738,272.262 242.5,271.5 Z"/></g>
<g><path style="opacity:0.635" fill="#9b9b9b" d="M 379.5,272.5 C 378.833,273.167 378.167,273.833 377.5,274.5C 377.281,273.325 377.614,272.325 378.5,271.5C 379.107,271.624 379.44,271.957 379.5,272.5 Z"/></g>
<g><path style="opacity:0.974" fill="#404040" d="M 379.5,272.5 C 379.833,272.5 380.167,272.5 380.5,272.5C 380.5,273.833 380.5,275.167 380.5,276.5C 380.328,277.492 380.662,278.158 381.5,278.5C 381.56,279.043 381.893,279.376 382.5,279.5C 383.386,278.675 383.719,277.675 383.5,276.5C 384.222,275.449 385.222,274.782 386.5,274.5C 387.338,274.842 387.672,275.508 387.5,276.5C 386.662,276.842 386.328,277.508 386.5,278.5C 388.013,281.048 389.013,280.715 389.5,277.5C 390.708,276.766 392.041,276.433 393.5,276.5C 393.784,278.415 393.451,280.081 392.5,281.5C 391.596,282.209 391.263,283.209 391.5,284.5C 390.5,284.5 389.5,284.5 388.5,284.5C 387.833,284.5 387.167,284.5 386.5,284.5C 385.791,283.596 384.791,283.263 383.5,283.5C 383.167,283.5 382.833,283.5 382.5,283.5C 381.791,282.596 380.791,282.263 379.5,282.5C 377.365,282.853 376.032,282.02 375.5,280C 375.954,277.97 376.62,276.137 377.5,274.5C 378.167,273.833 378.833,273.167 379.5,272.5 Z M 380.5,276.5 C 381.167,276.5 381.833,276.5 382.5,276.5C 382.672,277.492 382.338,278.158 381.5,278.5C 380.662,278.158 380.328,277.492 380.5,276.5 Z"/></g>
<g><path style="opacity:0.478" fill="#b0b0b0" d="M 199.5,272.5 C 199.737,273.791 199.404,274.791 198.5,275.5C 198.586,274.504 198.252,273.671 197.5,273C 198.094,272.536 198.761,272.369 199.5,272.5 Z"/></g>
<g><path style="opacity:0.776" fill="#989898" d="M 220.5,274.5 C 221.167,274.833 221.833,275.167 222.5,275.5C 222.5,276.167 222.833,276.5 223.5,276.5C 223.5,276.833 223.5,277.167 223.5,277.5C 221.5,277.5 220.5,276.5 220.5,274.5 Z"/></g>
<g><path style="opacity:0.035" fill="#d3d3d3" d="M 238.5,274.5 C 238.573,276.027 237.906,277.027 236.5,277.5C 236.5,276.833 236.167,276.5 235.5,276.5C 236.29,275.599 237.29,274.932 238.5,274.5 Z"/></g>
<g><path style="opacity:0.004" fill="#cccccc" d="M 380.5,272.5 C 381.345,273.671 382.011,275.005 382.5,276.5C 381.833,276.5 381.167,276.5 380.5,276.5C 380.5,275.167 380.5,273.833 380.5,272.5 Z"/></g>
<g><path style="opacity:0.608" fill="#9c9c9c" d="M 386.5,274.5 C 385.222,274.782 384.222,275.449 383.5,276.5C 383.5,275.5 383.5,274.5 383.5,273.5C 384.791,273.263 385.791,273.596 386.5,274.5 Z"/></g>
<g><path style="opacity:0.82" fill="#949494" d="M 393.5,276.5 C 392.041,276.433 390.708,276.766 389.5,277.5C 390.075,274.132 391.741,273.632 394.5,276C 394.272,276.399 393.938,276.565 393.5,276.5 Z"/></g>
<g><path style="opacity:0.018" fill="#d4d4d4" d="M 235.5,276.5 C 234.393,278.931 232.393,279.931 229.5,279.5C 227.667,279.415 226.334,278.748 225.5,277.5C 228.938,278.751 232.272,278.417 235.5,276.5 Z"/></g>
<g><path style="opacity:0.102" fill="#d8d8d8" d="M 387.5,276.5 C 389.031,277.925 388.698,278.591 386.5,278.5C 386.328,277.508 386.662,276.842 387.5,276.5 Z"/></g>
<g><path style="opacity:0.463" fill="#adadad" d="M 382.5,276.5 C 382.833,276.5 383.167,276.5 383.5,276.5C 383.719,277.675 383.386,278.675 382.5,279.5C 381.893,279.376 381.56,279.043 381.5,278.5C 382.338,278.158 382.672,277.492 382.5,276.5 Z"/></g>
<g><path style="opacity:0.049" fill="#e3e3e3" d="M 291.5,277.5 C 290.92,279.749 289.587,281.415 287.5,282.5C 288.08,280.251 289.413,278.585 291.5,277.5 Z"/></g>
<g><path style="opacity:0.545" fill="#959595" d="M 114.5,275.5 C 115.924,277.515 116.59,279.848 116.5,282.5C 115.076,280.485 114.41,278.152 114.5,275.5 Z"/></g>
<g><path style="opacity:0.004" fill="#eeeeee" d="M 379.5,282.5 C 380.791,282.263 381.791,282.596 382.5,283.5C 381.817,284.644 382.151,284.644 383.5,283.5C 384.791,283.263 385.791,283.596 386.5,284.5C 383.122,285.862 379.789,285.695 376.5,284C 377.737,283.768 378.737,283.268 379.5,282.5 Z"/></g>
<g><path style="opacity:0.004" fill="#cccccc" d="M 392.5,281.5 C 393.171,282.847 393.171,284.014 392.5,285C 390.934,285.765 389.601,285.598 388.5,284.5C 389.5,284.5 390.5,284.5 391.5,284.5C 391.263,283.209 391.596,282.209 392.5,281.5 Z"/></g>
<g><path style="opacity:0.004" fill="#f5f6f5" d="M 385.5,286.5 C 385.897,285.475 386.563,285.308 387.5,286C 386.906,286.464 386.239,286.631 385.5,286.5 Z"/></g>
<g><path style="opacity:0.004" fill="#f5f6f5" d="M 376.5,288.5 C 376.56,287.957 376.893,287.624 377.5,287.5C 378.773,288.257 378.773,288.923 377.5,289.5C 377.5,288.833 377.167,288.5 376.5,288.5 Z"/></g>
<g><path style="opacity:0.004" fill="#f5f6f5" d="M 114.5,288.5 C 113.833,289.167 113.833,289.167 114.5,288.5 Z"/></g>
<g><path style="opacity:0.967" fill="#424242" d="M 376.5,288.5 C 377.167,288.5 377.5,288.833 377.5,289.5C 380.129,292.631 382.962,295.631 386,298.5C 386.765,300.066 386.598,301.399 385.5,302.5C 379.642,302.822 373.975,302.489 368.5,301.5C 368.5,301.167 368.5,300.833 368.5,300.5C 372.75,299.728 377.083,299.228 381.5,299C 379.911,296.905 377.911,295.405 375.5,294.5C 371.999,292.653 371.665,290.32 374.5,287.5C 375.183,287.863 375.85,288.196 376.5,288.5 Z"/></g>
<g><path style="opacity:0.851" fill="#7e7e7e" d="M 278.5,289.5 C 279.167,289.5 279.833,289.5 280.5,289.5C 279.415,291.587 277.749,292.92 275.5,293.5C 275.833,292.833 276.167,292.167 276.5,291.5C 277.167,291.5 277.5,291.167 277.5,290.5C 278.167,290.5 278.5,290.167 278.5,289.5 Z"/></g>
<g><path style="opacity:0.749" fill="#878787" d="M 273.5,293.5 C 274.167,293.5 274.833,293.5 275.5,293.5C 275.027,294.906 274.027,295.573 272.5,295.5C 272.833,294.833 273.167,294.167 273.5,293.5 Z"/></g>
<g><path style="opacity:0.007" fill="#f5f6f5" d="M 375.5,295.5 C 375.5,296.167 375.833,296.5 376.5,296.5C 375.614,297.776 374.614,297.776 373.5,296.5C 373.957,295.702 374.624,295.369 375.5,295.5 Z"/></g>
<g><path style="opacity:0.114" fill="#cfcfcf" d="M 259.5,294.5 C 262.096,295.265 264.763,295.599 267.5,295.5C 267.842,296.338 268.508,296.672 269.5,296.5C 268.791,297.404 267.791,297.737 266.5,297.5C 266.167,296.167 265.833,296.167 265.5,297.5C 262.911,297.539 260.911,296.539 259.5,294.5 Z"/></g>
<g><path style="opacity:0.043" fill="#c4c4c4" d="M 375.5,295.5 C 375.5,295.167 375.5,294.833 375.5,294.5C 377.911,295.405 379.911,296.905 381.5,299C 377.083,299.228 372.75,299.728 368.5,300.5C 371.355,298.75 374.689,297.917 378.5,298C 377.956,297.283 377.289,296.783 376.5,296.5C 375.833,296.5 375.5,296.167 375.5,295.5 Z"/></g>
<g><path style="opacity:0.004" fill="#f5f6f5" d="M 118.5,300.5 C 117.833,301.167 117.833,301.167 118.5,300.5 Z"/></g>
<g><path style="opacity:0.004" fill="#e4e4e4" d="M 349.5,301.5 C 349.715,303.179 349.048,304.179 347.5,304.5C 347.932,303.29 348.599,302.29 349.5,301.5 Z"/></g>
<g><path style="opacity:0.135" fill="#dadada" d="M 368.5,301.5 C 373.975,302.489 379.642,302.822 385.5,302.5C 379.654,303.817 373.654,303.817 367.5,302.5C 367.624,301.893 367.957,301.56 368.5,301.5 Z"/></g>
<g><path style="opacity:0.004" fill="#f5f6f5" d="M 368.5,304.5 C 369.833,305.167 369.833,305.167 368.5,304.5 Z"/></g>
<g><path style="opacity:0.968" fill="#4e4e4e" d="M 367.5,312.5 C 365.668,313.14 365.335,314.14 366.5,315.5C 367.522,315.145 368.189,314.478 368.5,313.5C 369.391,312.89 370.391,312.557 371.5,312.5C 371.833,313.167 372.167,313.833 372.5,314.5C 370.862,315.705 370.529,317.038 371.5,318.5C 372.492,318.672 373.158,318.338 373.5,317.5C 374.5,316.833 375.5,316.167 376.5,315.5C 378.851,316.916 378.851,318.583 376.5,320.5C 375.662,320.842 375.328,321.508 375.5,322.5C 375.134,323.695 374.301,324.361 373,324.5C 370.721,323.609 368.554,322.609 366.5,321.5C 364.833,320.167 363.167,318.833 361.5,317.5C 361.167,316.833 360.833,316.167 360.5,315.5C 361.343,312.484 362.843,309.817 365,307.5C 366.883,308.653 367.716,310.319 367.5,312.5 Z M 367.5,312.5 C 367.5,313.167 367.833,313.5 368.5,313.5C 368.189,314.478 367.522,315.145 366.5,315.5C 365.335,314.14 365.668,313.14 367.5,312.5 Z"/></g>
<g><path style="opacity:0.082" fill="#e7e7e7" d="M 371.5,312.5 C 370.391,312.557 369.391,312.89 368.5,313.5C 367.833,313.5 367.5,313.167 367.5,312.5C 368.961,311.314 370.295,311.314 371.5,312.5 Z"/></g>
<g><path style="opacity:0.008" fill="#d7d7d7" d="M 371.5,312.5 C 373.424,312.711 373.757,313.377 372.5,314.5C 372.167,313.833 371.833,313.167 371.5,312.5 Z"/></g>
<g><path style="opacity:0.005" fill="#e0e0e0" d="M 372.5,314.5 C 373.833,314.833 375.167,315.167 376.5,315.5C 375.5,316.167 374.5,316.833 373.5,317.5C 372.508,317.328 371.842,317.662 371.5,318.5C 370.529,317.038 370.862,315.705 372.5,314.5 Z"/></g>
<g><path style="opacity:0.937" fill="#646464" d="M 116.5,283.5 C 124.143,309.323 137.476,331.823 156.5,351C 156.167,351.5 155.833,352 155.5,352.5C 145.743,344.576 137.577,335.242 131,324.5C 126.534,316.565 122.367,308.565 118.5,300.5C 117.5,296.5 116.5,292.5 115.5,288.5C 116.451,287.081 116.784,285.415 116.5,283.5 Z"/></g>
<g><path style="opacity:0.016" fill="#d1d1d1" d="M 360.5,315.5 C 360.833,316.167 361.167,316.833 361.5,317.5C 359.576,317.289 359.243,316.623 360.5,315.5 Z"/></g>
<g><path style="opacity:0.004" fill="#f5f6f5" d="M 362.5,320.5 C 361.833,319.167 361.833,319.167 362.5,320.5 Z"/></g>
<g><path style="opacity:0.004" fill="#f5f6f5" d="M 362.5,320.5 C 363.833,321.167 363.833,321.167 362.5,320.5 Z"/></g>
<g><path style="opacity:0.004" fill="#f5f6f5" d="M 366.5,321.5 C 367.368,323.892 366.701,324.059 364.5,322C 365.094,321.536 365.761,321.369 366.5,321.5 Z"/></g>
<g><path style="opacity:0.006" fill="#e4e4e4" d="M 376.5,320.5 C 378.031,321.925 377.698,322.591 375.5,322.5C 375.328,321.508 375.662,320.842 376.5,320.5 Z"/></g>
<g><path style="opacity:0.004" fill="#f5f6f5" d="M 361.5,324.5 C 362.833,325.167 362.833,325.167 361.5,324.5 Z"/></g>
<g><path style="opacity:0.981" fill="#525252" d="M 356.5,340.5 C 356.167,339.167 355.833,339.167 355.5,340.5C 353.188,337.521 350.521,334.854 347.5,332.5C 350.634,325.644 355.634,323.811 362.5,327C 366.699,332.281 366.366,337.281 361.5,342C 359.505,342.613 357.838,342.113 356.5,340.5 Z"/></g>
<g><path style="opacity:0.008" fill="#ececec" d="M 356.5,329.5 C 356.5,330.167 356.833,330.5 357.5,330.5C 357.842,331.338 358.508,331.672 359.5,331.5C 359.328,332.492 359.662,333.158 360.5,333.5C 360.5,334.167 360.833,334.5 361.5,334.5C 361.672,335.492 361.338,336.158 360.5,336.5C 360.167,335.167 359.833,335.167 359.5,336.5C 358.508,336.672 357.842,336.338 357.5,335.5C 358.833,335.167 358.833,334.833 357.5,334.5C 357.5,333.833 357.167,333.5 356.5,333.5C 356.167,332.167 355.833,332.167 355.5,333.5C 352.782,331.577 353.116,330.244 356.5,329.5 Z"/></g>
<g><path style="opacity:0.616" fill="#a8a8a8" d="M 176.5,335.5 C 178.027,335.427 179.027,336.094 179.5,337.5C 177.973,337.573 176.973,336.906 176.5,335.5 Z"/></g>
<g><path style="opacity:0.855" fill="#888888" d="M 179.5,337.5 C 181.404,337.738 182.738,338.738 183.5,340.5C 181.596,340.262 180.262,339.262 179.5,337.5 Z"/></g>
<g><path style="opacity:0.008" fill="#dddddd" d="M 315.5,340.5 C 315.842,339.662 316.508,339.328 317.5,339.5C 317.672,340.492 317.338,341.158 316.5,341.5C 316.5,340.833 316.167,340.5 315.5,340.5 Z"/></g>
<g><path style="opacity:0.004" fill="#f5f6f5" d="M 318.5,339.5 C 319.833,340.167 319.833,340.167 318.5,339.5 Z"/></g>
<g><path style="opacity:0.004" fill="#f5f6f5" d="M 355.5,340.5 C 355.833,340.5 356.167,340.5 356.5,340.5C 356.315,341.17 355.981,341.17 355.5,340.5 Z"/></g>
<g><path style="opacity:0.478" fill="#989898" d="M 183.5,340.5 C 185.027,340.427 186.027,341.094 186.5,342.5C 184.973,342.573 183.973,341.906 183.5,340.5 Z"/></g>
<g><path style="opacity:0.004" fill="#f5f6f5" d="M 315.5,341.5 C 315.833,341.5 316.167,341.5 316.5,341.5C 316.315,342.17 315.981,342.17 315.5,341.5 Z"/></g>
<g><path style="opacity:0.463" fill="#999999" d="M 186.5,342.5 C 188.027,342.427 189.027,343.094 189.5,344.5C 187.973,344.573 186.973,343.906 186.5,342.5 Z"/></g>
<g><path style="opacity:0.004" fill="#f5f6f5" d="M 312.5,343.5 C 313.833,344.167 313.833,344.167 312.5,343.5 Z"/></g>
<g><path style="opacity:0.373" fill="#a3a3a3" d="M 189.5,344.5 C 191.027,344.427 192.027,345.094 192.5,346.5C 190.973,346.573 189.973,345.906 189.5,344.5 Z"/></g>
<g><path style="opacity:0.394" fill="#a2a2a2" d="M 333.5,346.5 C 333.56,345.957 333.893,345.624 334.5,345.5C 335.24,348.866 335.907,352.2 336.5,355.5C 334.89,352.797 333.89,349.797 333.5,346.5 Z"/></g>
<g><path style="opacity:0.004" fill="#efefef" d="M 331.5,347.5 C 331.5,348.5 331.5,349.5 331.5,350.5C 330.609,351.11 329.609,351.443 328.5,351.5C 327.833,351.5 327.167,351.5 326.5,351.5C 328.707,350.87 330.374,349.536 331.5,347.5 Z"/></g>
<g><path style="opacity:0.004" fill="#e4e4e4" d="M 297.5,351.5 C 297.842,350.662 298.508,350.328 299.5,350.5C 299.591,352.698 298.925,353.031 297.5,351.5 Z"/></g>
<g><path style="opacity:0.96" fill="#464646" d="M 167.5,351.5 C 168.478,351.811 169.145,352.478 169.5,353.5C 168.423,355.729 167.756,358.063 167.5,360.5C 167.167,360.5 166.833,360.5 166.5,360.5C 165.427,361.251 165.26,362.251 166,363.5C 166.717,362.956 167.217,362.289 167.5,361.5C 169.404,361.262 170.738,360.262 171.5,358.5C 173.859,355.82 176.193,355.987 178.5,359C 176.597,363.303 174.597,367.47 172.5,371.5C 171.609,372.11 170.609,372.443 169.5,372.5C 168.167,372.5 167.5,371.833 167.5,370.5C 168.167,370.5 168.5,370.167 168.5,369.5C 169.167,369.5 169.5,369.167 169.5,368.5C 169.737,367.209 169.404,366.209 168.5,365.5C 167.128,366.512 165.795,367.512 164.5,368.5C 164.5,368.833 164.5,369.167 164.5,369.5C 163.29,369.068 162.29,368.401 161.5,367.5C 161.5,366.833 161.5,366.167 161.5,365.5C 161.5,365.167 161.5,364.833 161.5,364.5C 162.338,364.158 162.672,363.492 162.5,362.5C 162.5,361.5 162.5,360.5 162.5,359.5C 161.833,359.833 161.167,360.167 160.5,360.5C 159.167,361.5 157.833,362.5 156.5,363.5C 155.697,362.577 155.53,361.577 156,360.5C 159.185,356.459 163.019,353.459 167.5,351.5 Z M 162.5,359.5 C 162.5,360.5 162.5,361.5 162.5,362.5C 161.167,362.5 160.5,361.833 160.5,360.5C 161.167,360.167 161.833,359.833 162.5,359.5 Z"/></g>
<g><path style="opacity:0.971" fill="#4f4f4f" d="M 333.5,346.5 C 333.89,349.797 334.89,352.797 336.5,355.5C 339.753,355.562 342.753,356.396 345.5,358C 344.307,359.095 342.973,359.928 341.5,360.5C 341.167,360.5 340.833,360.5 340.5,360.5C 338.708,360.634 337.042,360.301 335.5,359.5C 335.103,358.475 334.437,358.308 333.5,359C 334.066,359.995 334.733,360.828 335.5,361.5C 336.11,362.391 336.443,363.391 336.5,364.5C 335.998,366.085 334.998,366.585 333.5,366C 330.132,362.098 327.132,357.931 324.5,353.5C 324.855,352.478 325.522,351.811 326.5,351.5C 327.167,351.5 327.833,351.5 328.5,351.5C 330.853,355.812 331.853,355.478 331.5,350.5C 331.5,349.5 331.5,348.5 331.5,347.5C 331.842,346.662 332.508,346.328 333.5,346.5 Z"/></g>
<g><path style="opacity:0.004" fill="#f5f6f5" d="M 294.5,353.5 C 295.239,353.369 295.906,353.536 296.5,354C 295.563,354.692 294.897,354.525 294.5,353.5 Z"/></g>
<g><path style="opacity:0.004" fill="#f5f6f5" d="M 207.5,355.5 C 208.833,356.167 208.833,356.167 207.5,355.5 Z"/></g>
<g><path style="opacity:0.824" fill="#8b8b8b" d="M 211.5,355.5 C 214.152,355.41 216.485,356.076 218.5,357.5C 215.848,357.59 213.515,356.924 211.5,355.5 Z"/></g>
<g><path style="opacity:0.004" fill="#e5e5e5" d="M 287.5,355.5 C 287.842,354.662 288.508,354.328 289.5,354.5C 289.918,355.222 290.584,355.722 291.5,356C 290.072,356.579 288.738,356.412 287.5,355.5 Z"/></g>
<g><path style="opacity:0.69" fill="#858585" d="M 167.5,351.5 C 163.019,353.459 159.185,356.459 156,360.5C 155.53,361.577 155.697,362.577 156.5,363.5C 156.167,363.5 155.833,363.5 155.5,363.5C 153.915,362.998 153.415,361.998 154,360.5C 157.667,356.833 161.333,353.167 165,349.5C 165.995,350.066 166.828,350.733 167.5,351.5 Z"/></g>
<g><path style="opacity:0.004" fill="#e3e3e3" d="M 281.5,357.5 C 282.209,356.596 283.209,356.263 284.5,356.5C 285.463,357.363 285.463,358.03 284.5,358.5C 283.583,357.873 282.583,357.539 281.5,357.5 Z"/></g>
<g><path style="opacity:0.525" fill="#989898" d="M 218.5,357.5 C 221.152,357.41 223.485,358.076 225.5,359.5C 224.167,359.5 222.833,359.5 221.5,359.5C 220.5,358.833 219.5,358.167 218.5,357.5 Z"/></g>
<g><path style="opacity:0.286" fill="#c3c3c3" d="M 335.5,359.5 C 335.5,360.167 335.5,360.833 335.5,361.5C 334.733,360.828 334.066,359.995 333.5,359C 334.437,358.308 335.103,358.475 335.5,359.5 Z"/></g>
<g><path style="opacity:0.482" fill="#a6a6a6" d="M 171.5,358.5 C 170.738,360.262 169.404,361.262 167.5,361.5C 167.5,361.167 167.5,360.833 167.5,360.5C 168.605,359.4 169.938,358.733 171.5,358.5 Z"/></g>
<g><path style="opacity:0.004" fill="#f5f6f5" d="M 221.5,359.5 C 221.103,360.525 220.437,360.692 219.5,360C 220.094,359.536 220.761,359.369 221.5,359.5 Z"/></g>
<g><path style="opacity:0.004" fill="#f5f6f5" d="M 276.5,359.5 C 277.239,359.369 277.906,359.536 278.5,360C 277.563,360.692 276.897,360.525 276.5,359.5 Z"/></g>
<g><path style="opacity:0.004" fill="#f5f6f5" d="M 223.5,361.5 C 223.897,360.475 224.563,360.308 225.5,361C 224.906,361.464 224.239,361.631 223.5,361.5 Z"/></g>
<g><path style="opacity:0.004" fill="#f5f6f5" d="M 273.5,360.5 C 274.833,361.167 274.833,361.167 273.5,360.5 Z"/></g>
<g><path style="opacity:0.979" fill="#4b4b4b" d="M 320.5,361.5 C 320.167,362.167 319.833,362.833 319.5,363.5C 317.265,363.205 315.265,363.539 313.5,364.5C 312.5,364.833 311.833,365.5 311.5,366.5C 311.5,367.5 311.5,368.5 311.5,369.5C 311.5,371.5 312.5,372.5 314.5,372.5C 316.38,372.771 317.713,372.104 318.5,370.5C 319.236,368.771 320.57,367.771 322.5,367.5C 323.434,368.568 323.768,369.901 323.5,371.5C 323.573,373.027 322.906,374.027 321.5,374.5C 320.29,374.932 319.29,375.599 318.5,376.5C 309.848,377.014 306.348,373.014 308,364.5C 311.241,359.269 315.407,358.269 320.5,361.5 Z M 316.5,369.5 C 317.167,369.833 317.833,370.167 318.5,370.5C 317.713,372.104 316.38,372.771 314.5,372.5C 314.167,371.833 313.833,371.167 313.5,370.5C 314.791,370.737 315.791,370.404 316.5,369.5 Z"/></g>
<g><path style="opacity:0.007" fill="#dedede" d="M 160.5,360.5 C 160.5,361.833 161.167,362.5 162.5,362.5C 162.672,363.492 162.338,364.158 161.5,364.5C 160.356,363.817 160.356,364.151 161.5,365.5C 161.5,366.167 161.5,366.833 161.5,367.5C 159.205,366.525 157.205,365.192 155.5,363.5C 155.833,363.5 156.167,363.5 156.5,363.5C 157.833,362.5 159.167,361.5 160.5,360.5 Z"/></g>
<g><path style="opacity:0.3" fill="#aaaaaa" d="M 166.5,360.5 C 166.5,361.167 166.833,361.5 167.5,361.5C 167.217,362.289 166.717,362.956 166,363.5C 165.26,362.251 165.427,361.251 166.5,360.5 Z"/></g>
<g><path style="opacity:0.004" fill="#f5f6f5" d="M 227.5,362.5 C 228.251,361.427 229.251,361.26 230.5,362C 229.552,362.483 228.552,362.649 227.5,362.5 Z"/></g>
<g><path style="opacity:0.006" fill="#f5f6f5" d="M 267.5,361.5 C 268.873,361.343 270.207,361.51 271.5,362C 269.934,362.765 268.601,362.598 267.5,361.5 Z"/></g>
<g><path style="opacity:0.007" fill="#eaeaea" d="M 340.5,360.5 C 340.833,360.5 341.167,360.5 341.5,360.5C 341.611,361.117 341.944,361.617 342.5,362C 340.512,362.938 338.512,363.772 336.5,364.5C 336.443,363.391 336.11,362.391 335.5,361.5C 337.415,361.784 339.081,361.451 340.5,360.5 Z"/></g>
<g><path style="opacity:0.004" fill="#f5f6f5" d="M 240.5,362.5 C 239.749,363.573 238.749,363.74 237.5,363C 238.448,362.517 239.448,362.351 240.5,362.5 Z"/></g>
<g><path style="opacity:0.031" fill="#c1c1c1" d="M 320.5,361.5 C 321.757,362.623 321.424,363.289 319.5,363.5C 319.833,362.833 320.167,362.167 320.5,361.5 Z"/></g>
<g><path style="opacity:0.027" fill="#b9b9b9" d="M 170.5,365.5 C 170.5,364.833 170.167,364.5 169.5,364.5C 170.122,363.373 170.955,362.373 172,361.5C 172.348,363.14 171.848,364.473 170.5,365.5 Z"/></g>
<g><path style="opacity:0.008" fill="#efefef" d="M 319.5,363.5 C 319.5,363.833 319.5,364.167 319.5,364.5C 316.833,364.833 316.833,365.167 319.5,365.5C 318.21,366.935 316.544,367.935 314.5,368.5C 314.957,369.298 315.624,369.631 316.5,369.5C 315.791,370.404 314.791,370.737 313.5,370.5C 313.5,369.833 313.167,369.5 312.5,369.5C 312.737,368.209 312.404,367.209 311.5,366.5C 311.833,365.5 312.5,364.833 313.5,364.5C 315.265,363.539 317.265,363.205 319.5,363.5 Z"/></g>
<g><path style="opacity:0.964" fill="#515151" d="M 193.5,370.5 C 191.716,370.107 190.05,369.441 188.5,368.5C 187.115,369.947 187.448,370.947 189.5,371.5C 190.167,372.167 190.833,372.833 191.5,373.5C 191.672,374.492 191.338,375.158 190.5,375.5C 188.83,375.249 187.33,374.582 186,373.5C 184.454,374.503 184.287,375.503 185.5,376.5C 185.842,377.338 186.508,377.672 187.5,377.5C 189.984,378.964 189.984,380.631 187.5,382.5C 184.219,381.375 181.552,379.542 179.5,377C 181.333,372.833 183.167,368.667 185,364.5C 188.025,363.291 190.859,363.791 193.5,366C 194.728,367.49 194.728,368.99 193.5,370.5 Z"/></g>
<g><path style="opacity:0.004" fill="#f5f6f5" d="M 319.5,365.5 C 319.5,365.167 319.5,364.833 319.5,364.5C 322.167,364.833 322.167,365.167 319.5,365.5 Z"/></g>
<g><path style="opacity:0.007" fill="#ececec" d="M 168.5,365.5 C 168.263,366.791 168.596,367.791 169.5,368.5C 169.5,369.167 169.167,369.5 168.5,369.5C 167.833,369.5 167.5,369.833 167.5,370.5C 166.209,370.737 165.209,370.404 164.5,369.5C 165.833,369.167 165.833,368.833 164.5,368.5C 165.795,367.512 167.128,366.512 168.5,365.5 Z"/></g>
<g><path style="opacity:0.962" fill="#4d4d4d" d="M 298.5,369.5 C 298.5,370.167 298.5,370.833 298.5,371.5C 294.366,372.807 294.033,373.807 297.5,374.5C 298.5,374.5 299.5,374.5 300.5,374.5C 300.5,374.833 300.5,375.167 300.5,375.5C 300.5,376.167 300.5,376.833 300.5,377.5C 300.167,377.5 299.833,377.5 299.5,377.5C 298.508,377.328 297.842,377.662 297.5,378.5C 296.596,379.209 296.263,380.209 296.5,381.5C 298.5,381.167 300.5,380.833 302.5,380.5C 302.5,381.5 302.5,382.5 302.5,383.5C 301.791,384.404 300.791,384.737 299.5,384.5C 298.508,384.328 297.842,384.662 297.5,385.5C 296.312,386.684 295.145,386.684 294,385.5C 292.162,380.65 290.328,375.817 288.5,371C 291.461,369.735 294.461,368.569 297.5,367.5C 298.298,367.957 298.631,368.624 298.5,369.5 Z"/></g>
<g><path style="opacity:0.357" fill="#b8b8b8" d="M 322.5,367.5 C 322.56,366.957 322.893,366.624 323.5,366.5C 324.788,368.299 324.788,369.965 323.5,371.5C 323.768,369.901 323.434,368.568 322.5,367.5 Z"/></g>
<g><path style="opacity:0.004" fill="#e8e8e8" d="M 188.5,368.5 C 188.557,369.609 188.89,370.609 189.5,371.5C 187.448,370.947 187.115,369.947 188.5,368.5 Z"/></g>
<g><path style="opacity:0.006" fill="#f5f6f5" d="M 193.5,370.5 C 194.525,370.897 194.692,371.563 194,372.5C 193.536,371.906 193.369,371.239 193.5,370.5 Z"/></g>
<g><path style="opacity:0.686" fill="#a1a1a1" d="M 311.5,369.5 C 311.833,369.5 312.167,369.5 312.5,369.5C 313.167,369.5 313.5,369.833 313.5,370.5C 313.833,371.167 314.167,371.833 314.5,372.5C 312.5,372.5 311.5,371.5 311.5,369.5 Z"/></g>
<g><path style="opacity:0.016" fill="#e5e5e5" d="M 189.5,371.5 C 190.675,371.281 191.675,371.614 192.5,372.5C 192.376,373.107 192.043,373.44 191.5,373.5C 190.833,372.833 190.167,372.167 189.5,371.5 Z"/></g>
<g><path style="opacity:0.643" fill="#9b9b9b" d="M 203.5,370.5 C 202.833,371.167 202.167,371.833 201.5,372.5C 201.281,371.325 201.614,370.325 202.5,369.5C 203.107,369.624 203.44,369.957 203.5,370.5 Z"/></g>
<g><path style="opacity:0.964" fill="#404040" d="M 203.5,370.5 C 209.89,370.383 212.39,373.383 211,379.5C 210.583,380.756 209.75,381.423 208.5,381.5C 206.448,382.053 206.115,383.053 207.5,384.5C 207.5,384.833 207.5,385.167 207.5,385.5C 207.179,387.048 206.179,387.715 204.5,387.5C 204.5,386.833 204.167,386.5 203.5,386.5C 203.5,385.833 203.5,385.167 203.5,384.5C 202.732,380.861 202.066,381.194 201.5,385.5C 200.167,385.5 198.833,385.5 197.5,385.5C 198.388,380.928 199.721,376.595 201.5,372.5C 202.167,371.833 202.833,371.167 203.5,370.5 Z"/></g>
<g><path style="opacity:0.004" fill="#e1e1e1" d="M 298.5,369.5 C 300.378,370.934 301.045,372.601 300.5,374.5C 299.5,374.5 298.5,374.5 297.5,374.5C 298.11,373.609 298.443,372.609 298.5,371.5C 298.5,370.833 298.5,370.167 298.5,369.5 Z"/></g>
<g><path style="opacity:0.09" fill="#aaaaaa" d="M 172.5,371.5 C 172.013,374.715 171.013,375.048 169.5,372.5C 170.609,372.443 171.609,372.11 172.5,371.5 Z"/></g>
<g><path style="opacity:0.97" fill="#444444" d="M 280.5,373.5 C 282.048,373.821 282.715,374.821 282.5,376.5C 281.209,376.263 280.209,376.596 279.5,377.5C 279.328,378.492 279.662,379.158 280.5,379.5C 280.833,382.167 281.167,384.833 281.5,387.5C 281.218,388.778 280.551,389.778 279.5,390.5C 278.503,390.53 277.836,390.03 277.5,389C 276.801,385.291 275.801,381.791 274.5,378.5C 273.167,378.5 271.833,378.5 270.5,378.5C 270.586,377.504 270.252,376.671 269.5,376C 270.448,375.517 271.448,375.351 272.5,375.5C 275.428,375.435 278.095,374.768 280.5,373.5 Z"/></g>
<g><path style="opacity:0.007" fill="#e4e4e4" d="M 190.5,375.5 C 189.5,376.167 188.5,376.833 187.5,377.5C 186.508,377.672 185.842,377.338 185.5,376.5C 184.287,375.503 184.454,374.503 186,373.5C 187.33,374.582 188.83,375.249 190.5,375.5 Z"/></g>
<g><path style="opacity:0.722" fill="#8a8a8a" d="M 280.5,373.5 C 278.095,374.768 275.428,375.435 272.5,375.5C 274.838,373.96 277.505,373.294 280.5,373.5 Z"/></g>
<g><path style="opacity:0.009" fill="#d0d0d0" d="M 205.5,374.5 C 205.5,375.167 205.833,375.5 206.5,375.5C 206.328,376.492 206.662,377.158 207.5,377.5C 206.779,379.382 205.779,379.715 204.5,378.5C 203.147,376.872 203.481,375.538 205.5,374.5 Z"/></g>
<g><path style="opacity:0.971" fill="#484848" d="M 228.5,377.5 C 229.5,377.5 230.5,377.5 231.5,377.5C 231.5,378.833 231.5,380.167 231.5,381.5C 231.632,384.57 231.299,387.57 230.5,390.5C 229.533,391.806 228.199,392.473 226.5,392.5C 225.662,392.158 225.328,391.492 225.5,390.5C 225.672,389.508 225.338,388.842 224.5,388.5C 223.25,383.36 222.584,383.36 222.5,388.5C 222.167,388.5 221.833,388.5 221.5,388.5C 220.533,389.806 219.199,390.473 217.5,390.5C 217.733,385.106 218.399,379.773 219.5,374.5C 220.93,374.421 222.264,374.754 223.5,375.5C 224.958,378.372 226.125,381.372 227,384.5C 227.29,382.08 227.79,379.746 228.5,377.5 Z M 224.5,388.5 C 224.062,389.506 223.396,389.506 222.5,388.5C 222.584,383.36 223.25,383.36 224.5,388.5 Z"/></g>
<g><path style="opacity:0.004" fill="#ebebeb" d="M 321.5,374.5 C 321.179,376.048 320.179,376.715 318.5,376.5C 319.29,375.599 320.29,374.932 321.5,374.5 Z"/></g>
<g><path style="opacity:0.543" fill="#9b9b9b" d="M 228.5,377.5 C 229.568,376.566 230.901,376.232 232.5,376.5C 232.784,378.415 232.451,380.081 231.5,381.5C 231.5,380.167 231.5,378.833 231.5,377.5C 230.5,377.5 229.5,377.5 228.5,377.5 Z"/></g>
<g><path style="opacity:0.007" fill="#d0d0d0" d="M 280.5,373.5 C 281.209,372.596 282.209,372.263 283.5,372.5C 283.5,374.833 283.5,377.167 283.5,379.5C 282.5,379.5 281.5,379.5 280.5,379.5C 282.031,378.075 281.698,377.409 279.5,377.5C 280.209,376.596 281.209,376.263 282.5,376.5C 282.715,374.821 282.048,373.821 280.5,373.5 Z"/></g>
<g><path style="opacity:0.973" fill="#535353" d="M 257.5,380.5 C 255.576,380.711 255.243,381.377 256.5,382.5C 257.209,383.404 258.209,383.737 259.5,383.5C 260.959,383.433 262.292,383.766 263.5,384.5C 264.219,386.764 264.552,389.097 264.5,391.5C 261.335,394.803 257.668,395.303 253.5,393C 250.544,389.868 251.21,387.868 255.5,387C 251.139,384.866 250.473,381.866 253.5,378C 259.152,375.168 262.819,376.668 264.5,382.5C 261.892,382.6 259.558,381.933 257.5,380.5 Z"/></g>
<g><path style="opacity:0.004" fill="#f5f6f5" d="M 316.5,377.5 C 317.833,378.167 317.833,378.167 316.5,377.5 Z"/></g>
<g><path style="opacity:0.007" fill="#dedede" d="M 270.5,378.5 C 271.833,378.5 273.167,378.5 274.5,378.5C 274.649,379.552 274.483,380.552 274,381.5C 273.015,380.186 271.848,379.186 270.5,378.5 Z"/></g>
<g><path style="opacity:0.02" fill="#dddddd" d="M 257.5,380.5 C 257.5,380.833 257.5,381.167 257.5,381.5C 256.833,381.5 256.5,381.833 256.5,382.5C 255.243,381.377 255.576,380.711 257.5,380.5 Z"/></g>
<g><path style="opacity:0.059" fill="#d7d7d7" d="M 300.5,375.5 C 301.546,377.466 302.546,379.466 303.5,381.5C 303.457,382.416 303.124,383.083 302.5,383.5C 302.5,382.5 302.5,381.5 302.5,380.5C 300.5,380.833 298.5,381.167 296.5,381.5C 296.263,380.209 296.596,379.209 297.5,378.5C 297.842,377.662 298.508,377.328 299.5,377.5C 299.833,380.167 300.167,380.167 300.5,377.5C 300.5,376.833 300.5,376.167 300.5,375.5 Z"/></g>
<g><path style="opacity:0.176" fill="#bebebe" d="M 208.5,381.5 C 207.89,382.391 207.557,383.391 207.5,384.5C 206.115,383.053 206.448,382.053 208.5,381.5 Z"/></g>
<g><path style="opacity:0.008" fill="#efefef" d="M 257.5,381.5 C 258.5,381.833 259.167,382.5 259.5,383.5C 258.209,383.737 257.209,383.404 256.5,382.5C 257.167,382.5 257.5,382.167 257.5,381.5 Z"/></g>
<g><path style="opacity:0.004" fill="#f5f6f5" d="M 209.5,382.5 C 210.833,383.167 210.833,383.167 209.5,382.5 Z"/></g>
<g><path style="opacity:0.008" fill="#d4d4d4" d="M 203.5,384.5 C 202.167,385.167 202.167,385.833 203.5,386.5C 204.167,386.5 204.5,386.833 204.5,387.5C 203.85,387.804 203.183,388.137 202.5,388.5C 200.897,387.207 199.231,386.207 197.5,385.5C 198.833,385.5 200.167,385.5 201.5,385.5C 202.066,381.194 202.732,380.861 203.5,384.5 Z"/></g>
<g><path style="opacity:0.006" fill="#ececec" d="M 297.5,385.5 C 297.842,384.662 298.508,384.328 299.5,384.5C 300.504,386.677 299.838,387.011 297.5,385.5 Z"/></g>
<g><path style="opacity:0.82" fill="#858585" d="M 207.5,385.5 C 209.088,386.635 209.421,387.969 208.5,389.5C 206.974,389.006 205.641,388.339 204.5,387.5C 206.179,387.715 207.179,387.048 207.5,385.5 Z"/></g>
<g><path style="opacity:0.012" fill="#e8e8e8" d="M 257.5,387.5 C 258.833,387.5 260.167,387.5 261.5,387.5C 261.5,388.5 261.5,389.5 261.5,390.5C 260.5,390.5 259.5,390.5 258.5,390.5C 258.167,389.167 257.833,389.167 257.5,390.5C 256.5,390.167 255.833,389.5 255.5,388.5C 256.492,388.672 257.158,388.338 257.5,387.5 Z"/></g>
<g><path style="opacity:0.006" fill="#ececec" d="M 222.5,388.5 C 223.396,389.506 224.062,389.506 224.5,388.5C 225.338,388.842 225.672,389.508 225.5,390.5C 223.334,393.04 222.334,392.373 222.5,388.5 Z"/></g>
<g><path style="opacity:0.494" fill="#a7a7a7" d="M 263.5,384.5 C 264.993,385.312 265.66,386.645 265.5,388.5C 265.48,389.726 265.147,390.726 264.5,391.5C 264.552,389.097 264.219,386.764 263.5,384.5 Z"/></g>
<g><path style="opacity:0.329" fill="#b7b7b7" d="M 281.5,387.5 C 282.404,388.209 282.737,389.209 282.5,390.5C 281.5,390.5 280.5,390.5 279.5,390.5C 280.551,389.778 281.218,388.778 281.5,387.5 Z"/></g>
<g><path style="opacity:0.824" fill="#7d7d7d" d="M 221.5,388.5 C 221.473,392.699 219.807,393.533 216.5,391C 216.728,390.601 217.062,390.435 217.5,390.5C 219.199,390.473 220.533,389.806 221.5,388.5 Z"/></g>
<g><path style="opacity:0.145" fill="#c8c8c8" d="M 230.5,390.5 C 230.5,391.5 230.5,392.5 230.5,393.5C 228.901,393.768 227.568,393.434 226.5,392.5C 228.199,392.473 229.533,391.806 230.5,390.5 Z"/></g>
</svg>
